<svg xmlns="http://www.w3.org/2000/svg" xmlns:xlink="http://www.w3.org/1999/xlink" xmlns:s="https://github.com/nturley/netlistsvg" width="1777" height="1166.5">
  <style>svg {
    stroke:#000;
    fill:none;
  }
  text {
    fill:#000;
    stroke:none;
    font-size:10px;
    font-weight: bold;
    font-family: "Courier New", monospace;
  }
  .nodelabel {
    text-anchor: middle;
  }
  .inputPortLabel {
    text-anchor: end;
  }
  .splitjoinBody {
    fill:#000;
  }</style>
  <g s:type="add" transform="translate(435.66666666666663,262.5)" s:width="25" s:height="25" id="cell_$add$FanCTRL.v:122$121">
    <s:alias val="$add"/>
    <circle r="12.5" cx="12.5" cy="12.5" class="cell_$add$FanCTRL.v:122$121"/>
    <line x1="7.5" x2="17.5" y1="12.5" y2="12.5" class="cell_$add$FanCTRL.v:122$121"/>
    <line x1="12.5" x2="12.5" y1="7.5" y2="17.5" class="cell_$add$FanCTRL.v:122$121"/>
    <g s:x="3" s:y="5" s:pid="A"/>
    <g s:x="3" s:y="20" s:pid="B"/>
    <g s:x="25" s:y="12.5" s:pid="Y"/>
  </g>
  <g s:type="add" transform="translate(1151.3333333333333,49)" s:width="25" s:height="25" id="cell_$add$FanCTRL.v:87$110">
    <s:alias val="$add"/>
    <circle r="12.5" cx="12.5" cy="12.5" class="cell_$add$FanCTRL.v:87$110"/>
    <line x1="7.5" x2="17.5" y1="12.5" y2="12.5" class="cell_$add$FanCTRL.v:87$110"/>
    <line x1="12.5" x2="12.5" y1="7.5" y2="17.5" class="cell_$add$FanCTRL.v:87$110"/>
    <g s:x="3" s:y="5" s:pid="A"/>
    <g s:x="3" s:y="20" s:pid="B"/>
    <g s:x="25" s:y="12.5" s:pid="Y"/>
  </g>
  <g s:type="generic" transform="translate(1595,103)" s:width="30" s:height="40" id="cell_$auto$ff.cc:266:slice$316">
    <text x="15" y="-4" class="nodelabel cell_$auto$ff.cc:266:slice$316" s:attribute="ref">$sdffe</text>
    <rect width="30" height="80" s:generic="body" class="cell_$auto$ff.cc:266:slice$316"/>
    <g transform="translate(0,10)" s:x="0" s:y="10" s:pid="in0" id="port_$auto$ff.cc:266:slice$316~CLK">
      <text x="-3" y="-4" class="inputPortLabel cell_$auto$ff.cc:266:slice$316">CLK</text>
    </g>
    <g transform="translate(0,30)" s:x="0" s:y="10" s:pid="in0" id="port_$auto$ff.cc:266:slice$316~D">
      <text x="-3" y="-4" class="inputPortLabel cell_$auto$ff.cc:266:slice$316">D</text>
    </g>
    <g transform="translate(0,50)" s:x="0" s:y="10" s:pid="in0" id="port_$auto$ff.cc:266:slice$316~EN">
      <text x="-3" y="-4" class="inputPortLabel cell_$auto$ff.cc:266:slice$316">EN</text>
    </g>
    <g transform="translate(0,70)" s:x="0" s:y="10" s:pid="in0" id="port_$auto$ff.cc:266:slice$316~SRST">
      <text x="-3" y="-4" class="inputPortLabel cell_$auto$ff.cc:266:slice$316">SRST</text>
    </g>
    <g transform="translate(30,10)" s:x="30" s:y="10" s:pid="out0" id="port_$auto$ff.cc:266:slice$316~Q">
      <text x="5" y="-4" style="fill:#000; stroke:none" class="cell_$auto$ff.cc:266:slice$316">Q</text>
    </g>
  </g>
  <g s:type="generic" transform="translate(860,287)" s:width="30" s:height="40" id="cell_$auto$ff.cc:266:slice$322">
    <text x="15" y="-4" class="nodelabel cell_$auto$ff.cc:266:slice$322" s:attribute="ref">$sdffe</text>
    <rect width="30" height="80" s:generic="body" class="cell_$auto$ff.cc:266:slice$322"/>
    <g transform="translate(0,10)" s:x="0" s:y="10" s:pid="in0" id="port_$auto$ff.cc:266:slice$322~CLK">
      <text x="-3" y="-4" class="inputPortLabel cell_$auto$ff.cc:266:slice$322">CLK</text>
    </g>
    <g transform="translate(0,30)" s:x="0" s:y="10" s:pid="in0" id="port_$auto$ff.cc:266:slice$322~D">
      <text x="-3" y="-4" class="inputPortLabel cell_$auto$ff.cc:266:slice$322">D</text>
    </g>
    <g transform="translate(0,50)" s:x="0" s:y="10" s:pid="in0" id="port_$auto$ff.cc:266:slice$322~EN">
      <text x="-3" y="-4" class="inputPortLabel cell_$auto$ff.cc:266:slice$322">EN</text>
    </g>
    <g transform="translate(0,70)" s:x="0" s:y="10" s:pid="in0" id="port_$auto$ff.cc:266:slice$322~SRST">
      <text x="-3" y="-4" class="inputPortLabel cell_$auto$ff.cc:266:slice$322">SRST</text>
    </g>
    <g transform="translate(30,10)" s:x="30" s:y="10" s:pid="out0" id="port_$auto$ff.cc:266:slice$322~Q">
      <text x="5" y="-4" style="fill:#000; stroke:none" class="cell_$auto$ff.cc:266:slice$322">Q</text>
    </g>
  </g>
  <g s:type="not" transform="translate(247,179.5)" s:width="30" s:height="20" id="cell_$auto$opt_dff.cc:250:combine_resets$312">
    <s:alias val="$_NOT_"/>
    <s:alias val="$not"/>
    <s:alias val="$logic_not"/>
    <path d="M0,0 L0,20 L20,10 Z" class="cell_$auto$opt_dff.cc:250:combine_resets$312"/>
    <circle cx="23" cy="10" r="3" class="cell_$auto$opt_dff.cc:250:combine_resets$312"/>
    <g s:x="0" s:y="10" s:pid="A"/>
    <g s:x="25" s:y="10" s:pid="Y"/>
  </g>
  <g s:type="generic" transform="translate(1301,189)" s:width="30" s:height="40" id="cell_$auto$opt_dff.cc:254:combine_resets$315">
    <text x="15" y="-4" class="nodelabel cell_$auto$opt_dff.cc:254:combine_resets$315" s:attribute="ref">$reduce_or</text>
    <rect width="30" height="20" s:generic="body" class="cell_$auto$opt_dff.cc:254:combine_resets$315"/>
    <g transform="translate(0,10)" s:x="0" s:y="10" s:pid="in0" id="port_$auto$opt_dff.cc:254:combine_resets$315~A">
      <text x="-3" y="-4" class="inputPortLabel cell_$auto$opt_dff.cc:254:combine_resets$315">A</text>
    </g>
    <g transform="translate(30,10)" s:x="30" s:y="10" s:pid="out0" id="port_$auto$opt_dff.cc:254:combine_resets$315~Y">
      <text x="5" y="-4" style="fill:#000; stroke:none" class="cell_$auto$opt_dff.cc:254:combine_resets$315">Y</text>
    </g>
  </g>
  <g s:type="generic" transform="translate(566,361.5)" s:width="30" s:height="40" id="cell_$auto$opt_dff.cc:254:combine_resets$321">
    <text x="15" y="-4" class="nodelabel cell_$auto$opt_dff.cc:254:combine_resets$321" s:attribute="ref">$reduce_or</text>
    <rect width="30" height="20" s:generic="body" class="cell_$auto$opt_dff.cc:254:combine_resets$321"/>
    <g transform="translate(0,10)" s:x="0" s:y="10" s:pid="in0" id="port_$auto$opt_dff.cc:254:combine_resets$321~A">
      <text x="-3" y="-4" class="inputPortLabel cell_$auto$opt_dff.cc:254:combine_resets$321">A</text>
    </g>
    <g transform="translate(30,10)" s:x="30" s:y="10" s:pid="out0" id="port_$auto$opt_dff.cc:254:combine_resets$321~Y">
      <text x="5" y="-4" style="fill:#000; stroke:none" class="cell_$auto$opt_dff.cc:254:combine_resets$321">Y</text>
    </g>
  </g>
  <g s:type="eq" transform="translate(86.33333333333333,382)" s:width="25" s:height="25" id="cell_$eq$FanCTRL.v:84$108">
    <s:alias val="$eq"/>
    <circle r="12.5" cx="12.5" cy="12.5" class="cell_$eq$FanCTRL.v:84$108"/>
    <line x1="7.5" x2="17.5" y1="10" y2="10" class="cell_$eq$FanCTRL.v:84$108"/>
    <line x1="7.5" x2="17.5" y1="15" y2="15" class="cell_$eq$FanCTRL.v:84$108"/>
    <g s:x="3" s:y="5" s:pid="A"/>
    <g s:x="3" s:y="20" s:pid="B"/>
    <g s:x="25" s:y="12.5" s:pid="Y"/>
  </g>
  <g s:type="and" transform="translate(1595,33)" s:width="30" s:height="25" id="cell_$logic_and$FanCTRL.v:119$120">
    <s:alias val="$and"/>
    <s:alias val="$logic_and"/>
    <s:alias val="$_AND_"/>
    <path d="M0,0 L0,25 L15,25 A15 12.5 0 0 0 15,0 Z" class="cell_$logic_and$FanCTRL.v:119$120"/>
    <g s:x="0" s:y="5" s:pid="A"/>
    <g s:x="0" s:y="20" s:pid="B"/>
    <g s:x="30" s:y="12.5" s:pid="Y"/>
  </g>
  <g s:type="and" transform="translate(1045,215.5)" s:width="30" s:height="25" id="cell_$logic_and$FanCTRL.v:84$109">
    <s:alias val="$and"/>
    <s:alias val="$logic_and"/>
    <s:alias val="$_AND_"/>
    <path d="M0,0 L0,25 L15,25 A15 12.5 0 0 0 15,0 Z" class="cell_$logic_and$FanCTRL.v:84$109"/>
    <g s:x="0" s:y="5" s:pid="A"/>
    <g s:x="0" s:y="20" s:pid="B"/>
    <g s:x="30" s:y="12.5" s:pid="Y"/>
  </g>
  <g s:type="sub" transform="translate(893.3333333333334,500.5)" s:width="25" s:height="25" id="cell_$sub$FanCTRL.v:102$114">
    <s:alias val="$sub"/>
    <circle r="12.5" cx="12.5" cy="12.5" class="cell_$sub$FanCTRL.v:102$114"/>
    <line x1="7.5" x2="17.5" y1="12.5" y2="12.5" class="cell_$sub$FanCTRL.v:102$114"/>
    <g s:x="3" s:y="5" s:pid="A"/>
    <g s:x="3" s:y="20" s:pid="B"/>
    <g s:x="25" s:y="12.5" s:pid="Y"/>
  </g>
  <g s:type="mux" transform="translate(1048.3333333333333,395.5)" s:width="20" s:height="40" id="cell_$ternary$FanCTRL.v:101$112">
    <s:alias val="$pmux"/>
    <s:alias val="$mux"/>
    <s:alias val="$_MUX_"/>
    <path d="M0,0 L20,10 L20,30 L0,40 Z" class="cell_$ternary$FanCTRL.v:101$112"/>
    <g s:x="0" s:y="10" s:pid="A"/>
    <g s:x="0" s:y="30" s:pid="B"/>
    <g s:x="10" s:y="35" s:pid="S"/>
    <g s:x="20" s:y="20" s:pid="Y"/>
  </g>
  <g s:type="mux" transform="translate(1048.3333333333333,479.5)" s:width="20" s:height="40" id="cell_$ternary$FanCTRL.v:102$116">
    <s:alias val="$pmux"/>
    <s:alias val="$mux"/>
    <s:alias val="$_MUX_"/>
    <path d="M0,0 L20,10 L20,30 L0,40 Z" class="cell_$ternary$FanCTRL.v:102$116"/>
    <g s:x="0" s:y="10" s:pid="A"/>
    <g s:x="0" s:y="30" s:pid="B"/>
    <g s:x="10" s:y="35" s:pid="S"/>
    <g s:x="20" s:y="20" s:pid="Y"/>
  </g>
  <g s:type="mux" transform="translate(158.33333333333334,1093.5)" s:width="20" s:height="40" id="cell_$ternary$FanCTRL.v:59$105">
    <s:alias val="$pmux"/>
    <s:alias val="$mux"/>
    <s:alias val="$_MUX_"/>
    <path d="M0,0 L20,10 L20,30 L0,40 Z" class="cell_$ternary$FanCTRL.v:59$105"/>
    <g s:x="0" s:y="10" s:pid="A"/>
    <g s:x="0" s:y="30" s:pid="B"/>
    <g s:x="10" s:y="35" s:pid="S"/>
    <g s:x="20" s:y="20" s:pid="Y"/>
  </g>
  <g s:type="generic" transform="translate(438,770)" s:width="30" s:height="40" id="cell_PID">
    <text x="15" y="-4" class="nodelabel cell_PID" s:attribute="ref">PID_core</text>
    <rect width="30" height="200" s:generic="body" class="cell_PID"/>
    <g transform="translate(0,10)" s:x="0" s:y="10" s:pid="in0" id="port_PID~ADC_value_i">
      <text x="-3" y="-4" class="inputPortLabel cell_PID">ADC_value_i</text>
    </g>
    <g transform="translate(0,30)" s:x="0" s:y="10" s:pid="in0" id="port_PID~SET_value_i">
      <text x="-3" y="-4" class="inputPortLabel cell_PID">SET_value_i</text>
    </g>
    <g transform="translate(0,50)" s:x="0" s:y="10" s:pid="in0" id="port_PID~a0_reg_i">
      <text x="-3" y="-4" class="inputPortLabel cell_PID">a0_reg_i</text>
    </g>
    <g transform="translate(0,70)" s:x="0" s:y="10" s:pid="in0" id="port_PID~a1_reg_i">
      <text x="-3" y="-4" class="inputPortLabel cell_PID">a1_reg_i</text>
    </g>
    <g transform="translate(0,90)" s:x="0" s:y="10" s:pid="in0" id="port_PID~b0_reg_i">
      <text x="-3" y="-4" class="inputPortLabel cell_PID">b0_reg_i</text>
    </g>
    <g transform="translate(0,110)" s:x="0" s:y="10" s:pid="in0" id="port_PID~b1_reg_i">
      <text x="-3" y="-4" class="inputPortLabel cell_PID">b1_reg_i</text>
    </g>
    <g transform="translate(0,130)" s:x="0" s:y="10" s:pid="in0" id="port_PID~b2_reg_i">
      <text x="-3" y="-4" class="inputPortLabel cell_PID">b2_reg_i</text>
    </g>
    <g transform="translate(0,150)" s:x="0" s:y="10" s:pid="in0" id="port_PID~clk_en_PID_i">
      <text x="-3" y="-4" class="inputPortLabel cell_PID">clk_en_PID_i</text>
    </g>
    <g transform="translate(0,170)" s:x="0" s:y="10" s:pid="in0" id="port_PID~clk_i">
      <text x="-3" y="-4" class="inputPortLabel cell_PID">clk_i</text>
    </g>
    <g transform="translate(0,190)" s:x="0" s:y="10" s:pid="in0" id="port_PID~rstn_i">
      <text x="-3" y="-4" class="inputPortLabel cell_PID">rstn_i</text>
    </g>
    <g transform="translate(30,10)" s:x="30" s:y="10" s:pid="out0" id="port_PID~out_Val_o">
      <text x="5" y="-4" style="fill:#000; stroke:none" class="cell_PID">out_Val_o</text>
    </g>
  </g>
  <g s:type="generic" transform="translate(1415,426.5)" s:width="30" s:height="40" id="cell_PWM">
    <text x="15" y="-4" class="nodelabel cell_PWM" s:attribute="ref">PWM_controller</text>
    <rect width="30" height="120" s:generic="body" class="cell_PWM"/>
    <g transform="translate(0,10)" s:x="0" s:y="10" s:pid="in0" id="port_PWM~clk_en_i">
      <text x="-3" y="-4" class="inputPortLabel cell_PWM">clk_en_i</text>
    </g>
    <g transform="translate(0,30)" s:x="0" s:y="10" s:pid="in0" id="port_PWM~clk_i">
      <text x="-3" y="-4" class="inputPortLabel cell_PWM">clk_i</text>
    </g>
    <g transform="translate(0,50)" s:x="0" s:y="10" s:pid="in0" id="port_PWM~counterValue_i">
      <text x="-3" y="-4" class="inputPortLabel cell_PWM">counterValue_i</text>
    </g>
    <g transform="translate(0,70)" s:x="0" s:y="10" s:pid="in0" id="port_PWM~minCounterValue_i">
      <text x="-3" y="-4" class="inputPortLabel cell_PWM">minCounterValue_i</text>
    </g>
    <g transform="translate(0,90)" s:x="0" s:y="10" s:pid="in0" id="port_PWM~periodCounterValue_i">
      <text x="-3" y="-4" class="inputPortLabel cell_PWM">periodCounterValue_i</text>
    </g>
    <g transform="translate(0,110)" s:x="0" s:y="10" s:pid="in0" id="port_PWM~rstn_i">
      <text x="-3" y="-4" class="inputPortLabel cell_PWM">rstn_i</text>
    </g>
    <g transform="translate(30,10)" s:x="30" s:y="10" s:pid="out0" id="port_PWM~PWM_pin_o">
      <text x="5" y="-4" style="fill:#000; stroke:none" class="cell_PWM">PWM_pin_o</text>
    </g>
  </g>
  <g s:type="inputExt" transform="translate(229,445.5)" s:width="30" s:height="20" id="cell_clk_i">
    <text x="15" y="-4" class="nodelabel cell_clk_i" s:attribute="ref">clk_i</text>
    <s:alias val="$_inputExt_"/>
    <path d="M0,0 L0,20 L15,20 L30,10 L15,0 Z" class="cell_clk_i"/>
    <g s:x="28" s:y="10" s:pid="Y"/>
  </g>
  <g s:type="inputExt" transform="translate(153,604.5)" s:width="30" s:height="20" id="cell_rstn_i">
    <text x="15" y="-4" class="nodelabel cell_rstn_i" s:attribute="ref">rstn_i</text>
    <s:alias val="$_inputExt_"/>
    <path d="M0,0 L0,20 L15,20 L30,10 L15,0 Z" class="cell_rstn_i"/>
    <g s:x="28" s:y="10" s:pid="Y"/>
  </g>
  <g s:type="inputExt" transform="translate(566,210.5)" s:width="30" s:height="20" id="cell_clk_en_i">
    <text x="15" y="-4" class="nodelabel cell_clk_en_i" s:attribute="ref">clk_en_i</text>
    <s:alias val="$_inputExt_"/>
    <path d="M0,0 L0,20 L15,20 L30,10 L15,0 Z" class="cell_clk_en_i"/>
    <g s:x="28" s:y="10" s:pid="Y"/>
  </g>
  <g s:type="inputExt" transform="translate(229,635.5)" s:width="30" s:height="20" id="cell_ADC_value_i">
    <text x="15" y="-4" class="nodelabel cell_ADC_value_i" s:attribute="ref">ADC_value_i</text>
    <s:alias val="$_inputExt_"/>
    <path d="M0,0 L0,20 L15,20 L30,10 L15,0 Z" class="cell_ADC_value_i"/>
    <g s:x="28" s:y="10" s:pid="Y"/>
  </g>
  <g s:type="inputExt" transform="translate(229,700.5)" s:width="30" s:height="20" id="cell_SET_value_i">
    <text x="15" y="-4" class="nodelabel cell_SET_value_i" s:attribute="ref">SET_value_i</text>
    <s:alias val="$_inputExt_"/>
    <path d="M0,0 L0,20 L15,20 L30,10 L15,0 Z" class="cell_SET_value_i"/>
    <g s:x="28" s:y="10" s:pid="Y"/>
  </g>
  <g s:type="inputExt" transform="translate(1110,584.5)" s:width="30" s:height="20" id="cell_PWM_periodCounterValue_i">
    <text x="15" y="-4" class="nodelabel cell_PWM_periodCounterValue_i" s:attribute="ref">PWM_periodCounterValue_i</text>
    <s:alias val="$_inputExt_"/>
    <path d="M0,0 L0,20 L15,20 L30,10 L15,0 Z" class="cell_PWM_periodCounterValue_i"/>
    <g s:x="28" s:y="10" s:pid="Y"/>
  </g>
  <g s:type="inputExt" transform="translate(1110,519.5)" s:width="30" s:height="20" id="cell_PWM_minCounterValue_i">
    <text x="15" y="-4" class="nodelabel cell_PWM_minCounterValue_i" s:attribute="ref">PWM_minCounterValue_i</text>
    <s:alias val="$_inputExt_"/>
    <path d="M0,0 L0,20 L15,20 L30,10 L15,0 Z" class="cell_PWM_minCounterValue_i"/>
    <g s:x="28" s:y="10" s:pid="Y"/>
  </g>
  <g s:type="inputExt" transform="translate(229,765.5)" s:width="30" s:height="20" id="cell_a0_i">
    <text x="15" y="-4" class="nodelabel cell_a0_i" s:attribute="ref">a0_i</text>
    <s:alias val="$_inputExt_"/>
    <path d="M0,0 L0,20 L15,20 L30,10 L15,0 Z" class="cell_a0_i"/>
    <g s:x="28" s:y="10" s:pid="Y"/>
  </g>
  <g s:type="inputExt" transform="translate(229,830.5)" s:width="30" s:height="20" id="cell_a1_i">
    <text x="15" y="-4" class="nodelabel cell_a1_i" s:attribute="ref">a1_i</text>
    <s:alias val="$_inputExt_"/>
    <path d="M0,0 L0,20 L15,20 L30,10 L15,0 Z" class="cell_a1_i"/>
    <g s:x="28" s:y="10" s:pid="Y"/>
  </g>
  <g s:type="inputExt" transform="translate(229,895.5)" s:width="30" s:height="20" id="cell_b0_i">
    <text x="15" y="-4" class="nodelabel cell_b0_i" s:attribute="ref">b0_i</text>
    <s:alias val="$_inputExt_"/>
    <path d="M0,0 L0,20 L15,20 L30,10 L15,0 Z" class="cell_b0_i"/>
    <g s:x="28" s:y="10" s:pid="Y"/>
  </g>
  <g s:type="inputExt" transform="translate(229,960.5)" s:width="30" s:height="20" id="cell_b1_i">
    <text x="15" y="-4" class="nodelabel cell_b1_i" s:attribute="ref">b1_i</text>
    <s:alias val="$_inputExt_"/>
    <path d="M0,0 L0,20 L15,20 L30,10 L15,0 Z" class="cell_b1_i"/>
    <g s:x="28" s:y="10" s:pid="Y"/>
  </g>
  <g s:type="inputExt" transform="translate(229,1025.5)" s:width="30" s:height="20" id="cell_b2_i">
    <text x="15" y="-4" class="nodelabel cell_b2_i" s:attribute="ref">b2_i</text>
    <s:alias val="$_inputExt_"/>
    <path d="M0,0 L0,20 L15,20 L30,10 L15,0 Z" class="cell_b2_i"/>
    <g s:x="28" s:y="10" s:pid="Y"/>
  </g>
  <g s:type="outputExt" transform="translate(1595,427)" s:width="30" s:height="20" id="cell_PWM_pin_o">
    <text x="15" y="-4" class="nodelabel cell_PWM_pin_o" s:attribute="ref">PWM_pin_o</text>
    <s:alias val="$_outputExt_"/>
    <path d="M30,0 L30,20 L15,20 L0,10 L15,0 Z" class="cell_PWM_pin_o"/>
    <g s:x="0" s:y="10" s:pid="A"/>
  </g>
  <g s:type="outputExt" transform="translate(1595,800)" s:width="30" s:height="20" id="cell_PID_Val_o">
    <text x="15" y="-4" class="nodelabel cell_PID_Val_o" s:attribute="ref">PID_Val_o</text>
    <s:alias val="$_outputExt_"/>
    <path d="M30,0 L30,20 L15,20 L0,10 L15,0 Z" class="cell_PID_Val_o"/>
    <g s:x="0" s:y="10" s:pid="A"/>
  </g>
  <g s:type="constant" transform="translate(83,59)" s:width="30" s:height="20" id="cell_00000000000000000000000000000001">
    <text x="15" y="-4" class="nodelabel cell_00000000000000000000000000000001" s:attribute="ref">0x1</text>
    <s:alias val="$_constant_"/>
    <rect width="30" height="20" class="cell_00000000000000000000000000000001"/>
    <g s:x="30" s:y="10" s:pid="Y"/>
  </g>
  <g s:type="constant" transform="translate(12,392)" s:width="30" s:height="20" id="cell_1001110000111111">
    <text x="15" y="-4" class="nodelabel cell_1001110000111111" s:attribute="ref">0x9c3f</text>
    <s:alias val="$_constant_"/>
    <rect width="30" height="20" class="cell_1001110000111111"/>
    <g s:x="30" s:y="10" s:pid="Y"/>
  </g>
  <g s:type="constant" transform="translate(83,124)" s:width="30" s:height="20" id="cell_00000000000000000000000000000000">
    <text x="15" y="-4" class="nodelabel cell_00000000000000000000000000000000" s:attribute="ref">0x0</text>
    <s:alias val="$_constant_"/>
    <rect width="30" height="20" class="cell_00000000000000000000000000000000"/>
    <g s:x="30" s:y="10" s:pid="Y"/>
  </g>
  <g s:type="join" transform="translate(1159,179)" s:width="4" s:height="40" id="cell_$join$,291,292,">
    <rect width="5" height="40" class="splitjoinBody" s:generic="body"/>
    <s:alias val="$_join_"/>
    <g s:x="5" s:y="20" s:pid="out"/>
    <g transform="translate(0,10)" s:x="0" s:y="10" s:pid="in0">
      <text x="-3" y="-4" class="inputPortLabel">0</text>
    </g>
    <g transform="translate(0,30)" s:x="0" s:y="10" s:pid="in0">
      <text x="-3" y="-4" class="inputPortLabel">1</text>
    </g>
  </g>
  <g s:type="join" transform="translate(449.66666666666663,202.5)" s:width="4" s:height="40" id="cell_$join$,291,293,">
    <rect width="5" height="40" class="splitjoinBody" s:generic="body"/>
    <s:alias val="$_join_"/>
    <g s:x="5" s:y="20" s:pid="out"/>
    <g transform="translate(0,10)" s:x="0" s:y="10" s:pid="in0">
      <text x="-3" y="-4" class="inputPortLabel">0</text>
    </g>
    <g transform="translate(0,30)" s:x="0" s:y="10" s:pid="in0">
      <text x="-3" y="-4" class="inputPortLabel">1</text>
    </g>
  </g>
  <g s:type="split" transform="translate(1326,123)" s:width="5" s:height="40" id="cell_$split$,257,258,259,260,261,262,263,264,265,266,267,268,269,270,271,272,273,274,275,276,277,278,279,280,281,282,283,284,285,286,287,288,">
    <rect width="5" height="20" class="splitjoinBody" s:generic="body"/>
    <s:alias val="$_split_"/>
    <g s:x="0" s:y="20" s:pid="in"/>
    <g transform="translate(4,10)" s:x="4" s:y="10" s:pid="out0">
      <text x="5" y="-4">0:15</text>
    </g>
  </g>
  <g s:type="split" transform="translate(591,308.5)" s:width="5" s:height="40" id="cell_$split$,209,210,211,212,213,214,215,216,217,218,219,220,221,222,223,224,225,226,227,228,229,230,231,232,233,234,235,236,237,238,239,240,">
    <rect width="5" height="20" class="splitjoinBody" s:generic="body"/>
    <s:alias val="$_split_"/>
    <g s:x="0" s:y="20" s:pid="in"/>
    <g transform="translate(4,10)" s:x="4" s:y="10" s:pid="out0">
      <text x="5" y="-4">0</text>
    </g>
  </g>
  <g s:type="split" transform="translate(648.3333333333334,760)" s:width="5" s:height="40" id="cell_$split$,199,200,201,202,203,204,205,206,207,">
    <rect width="5" height="40" class="splitjoinBody" s:generic="body"/>
    <s:alias val="$_split_"/>
    <g s:x="0" s:y="20" s:pid="in"/>
    <g transform="translate(4,10)" s:x="4" s:y="10" s:pid="out0">
      <text x="5" y="-4">0:7</text>
    </g>
    <g transform="translate(4,30)" s:x="4" s:y="10" s:pid="out0">
      <text x="5" y="-4">8</text>
    </g>
  </g>
  <g s:type="split" transform="translate(254,1080.5)" s:width="5" s:height="40" id="cell_$split$,391,392,393,394,395,396,397,398,399,400,401,402,403,404,405,406,407,408,409,410,411,412,413,414,415,416,417,418,419,420,421,422,">
    <rect width="5" height="20" class="splitjoinBody" s:generic="body"/>
    <s:alias val="$_split_"/>
    <g s:x="0" s:y="20" s:pid="in"/>
    <g transform="translate(4,10)" s:x="4" s:y="10" s:pid="out0">
      <text x="5" y="-4">0</text>
    </g>
  </g>
  <g s:type="split" transform="translate(1135,382.5)" s:width="5" s:height="40" id="cell_$split$,327,328,329,330,331,332,333,334,335,336,337,338,339,340,341,342,343,344,345,346,347,348,349,350,351,352,353,354,355,356,357,358,">
    <rect width="5" height="20" class="splitjoinBody" s:generic="body"/>
    <s:alias val="$_split_"/>
    <g s:x="0" s:y="20" s:pid="in"/>
    <g transform="translate(4,10)" s:x="4" s:y="10" s:pid="out0">
      <text x="5" y="-4">0</text>
    </g>
  </g>
  <g s:type="split" transform="translate(1135,466.5)" s:width="5" s:height="40" id="cell_$split$,359,360,361,362,363,364,365,366,367,368,369,370,371,372,373,374,375,376,377,378,379,380,381,382,383,384,385,386,387,388,389,390,">
    <rect width="5" height="20" class="splitjoinBody" s:generic="body"/>
    <s:alias val="$_split_"/>
    <g s:x="0" s:y="20" s:pid="in"/>
    <g transform="translate(4,10)" s:x="4" s:y="10" s:pid="out0">
      <text x="5" y="-4">0:7</text>
    </g>
  </g>
  <line x1="891" x2="1020" y1="297.5" y2="297.5" class="net_208"/>
  <line x1="1020" x2="1020" y1="297.5" y2="252.5" class="net_208"/>
  <line x1="1020" x2="355" y1="252.5" y2="252.5" class="net_208"/>
  <line x1="355" x2="355" y1="252.5" y2="267.5" class="net_208"/>
  <circle cx="1020" cy="252.5" r="2" style="fill:#000" class="net_208"/>
  <circle cx="1020" cy="297.5" r="2" style="fill:#000" class="net_208"/>
  <line x1="355" x2="438.66666666666663" y1="267.5" y2="267.5" class="net_208"/>
  <line x1="891" x2="1020" y1="297.5" y2="297.5" class="net_208"/>
  <line x1="1020" x2="1020" y1="297.5" y2="84" class="net_208"/>
  <line x1="1020" x2="1545" y1="84" y2="84" class="net_208"/>
  <line x1="1545" x2="1545" y1="84" y2="53" class="net_208"/>
  <line x1="1545" x2="1595" y1="53" y2="53" class="net_208"/>
  <line x1="891" x2="1020" y1="297.5" y2="297.5" class="net_208"/>
  <line x1="1020" x2="1020" y1="297.5" y2="445.5" class="net_208"/>
  <line x1="1020" x2="1058.3333333333333" y1="445.5" y2="445.5" class="net_208"/>
  <line x1="1058.3333333333333" x2="1058.3333333333333" y1="445.5" y2="430.5" class="net_208"/>
  <line x1="113" x2="219" y1="69" y2="69" class="net_423,424,425,426,427,428,429,430,431,432,433,434,435,436,437,438,439,440,441,442,443,444,445,446,447,448,449,450,451,452,453,454"/>
  <line x1="219" x2="219" y1="69" y2="282.5" class="net_423,424,425,426,427,428,429,430,431,432,433,434,435,436,437,438,439,440,441,442,443,444,445,446,447,448,449,450,451,452,453,454"/>
  <circle cx="219" cy="69" r="2" style="fill:#000" class="net_423,424,425,426,427,428,429,430,431,432,433,434,435,436,437,438,439,440,441,442,443,444,445,446,447,448,449,450,451,452,453,454"/>
  <line x1="219" x2="438.66666666666663" y1="282.5" y2="282.5" class="net_423,424,425,426,427,428,429,430,431,432,433,434,435,436,437,438,439,440,441,442,443,444,445,446,447,448,449,450,451,452,453,454"/>
  <line x1="113" x2="1154.3333333333333" y1="69" y2="69" class="net_423,424,425,426,427,428,429,430,431,432,433,434,435,436,437,438,439,440,441,442,443,444,445,446,447,448,449,450,451,452,453,454"/>
  <line x1="113" x2="133" y1="69" y2="69" class="net_423,424,425,426,427,428,429,430,431,432,433,434,435,436,437,438,439,440,441,442,443,444,445,446,447,448,449,450,451,452,453,454"/>
  <line x1="133" x2="133" y1="69" y2="416.5" class="net_423,424,425,426,427,428,429,430,431,432,433,434,435,436,437,438,439,440,441,442,443,444,445,446,447,448,449,450,451,452,453,454"/>
  <line x1="133" x2="1030" y1="416.5" y2="416.5" class="net_423,424,425,426,427,428,429,430,431,432,433,434,435,436,437,438,439,440,441,442,443,444,445,446,447,448,449,450,451,452,453,454"/>
  <line x1="1030" x2="1030" y1="416.5" y2="425.5" class="net_423,424,425,426,427,428,429,430,431,432,433,434,435,436,437,438,439,440,441,442,443,444,445,446,447,448,449,450,451,452,453,454"/>
  <circle cx="133" cy="69" r="2" style="fill:#000" class="net_423,424,425,426,427,428,429,430,431,432,433,434,435,436,437,438,439,440,441,442,443,444,445,446,447,448,449,450,451,452,453,454"/>
  <circle cx="133" cy="416.5" r="2" style="fill:#000" class="net_423,424,425,426,427,428,429,430,431,432,433,434,435,436,437,438,439,440,441,442,443,444,445,446,447,448,449,450,451,452,453,454"/>
  <line x1="1030" x2="1048.3333333333333" y1="425.5" y2="425.5" class="net_423,424,425,426,427,428,429,430,431,432,433,434,435,436,437,438,439,440,441,442,443,444,445,446,447,448,449,450,451,452,453,454"/>
  <line x1="113" x2="133" y1="69" y2="69" class="net_423,424,425,426,427,428,429,430,431,432,433,434,435,436,437,438,439,440,441,442,443,444,445,446,447,448,449,450,451,452,453,454"/>
  <line x1="133" x2="133" y1="69" y2="1123.5" class="net_423,424,425,426,427,428,429,430,431,432,433,434,435,436,437,438,439,440,441,442,443,444,445,446,447,448,449,450,451,452,453,454"/>
  <line x1="133" x2="158.33333333333334" y1="1123.5" y2="1123.5" class="net_423,424,425,426,427,428,429,430,431,432,433,434,435,436,437,438,439,440,441,442,443,444,445,446,447,448,449,450,451,452,453,454"/>
  <line x1="1626" x2="1755" y1="113.5" y2="113.5" class="net_241,242,243,244,245,246,247,248,249,250,251,252,253,254,255,256"/>
  <line x1="1755" x2="1755" y1="113.5" y2="23" class="net_241,242,243,244,245,246,247,248,249,250,251,252,253,254,255,256"/>
  <line x1="1755" x2="1085" y1="23" y2="23" class="net_241,242,243,244,245,246,247,248,249,250,251,252,253,254,255,256"/>
  <line x1="1085" x2="1085" y1="23" y2="54" class="net_241,242,243,244,245,246,247,248,249,250,251,252,253,254,255,256"/>
  <circle cx="1755" cy="113.5" r="2" style="fill:#000" class="net_241,242,243,244,245,246,247,248,249,250,251,252,253,254,255,256"/>
  <line x1="1085" x2="1154.3333333333333" y1="54" y2="54" class="net_241,242,243,244,245,246,247,248,249,250,251,252,253,254,255,256"/>
  <line x1="1626" x2="1755" y1="113.5" y2="113.5" class="net_241,242,243,244,245,246,247,248,249,250,251,252,253,254,255,256"/>
  <line x1="1755" x2="1755" y1="113.5" y2="1153.5" class="net_241,242,243,244,245,246,247,248,249,250,251,252,253,254,255,256"/>
  <line x1="1755" x2="58" y1="1153.5" y2="1153.5" class="net_241,242,243,244,245,246,247,248,249,250,251,252,253,254,255,256"/>
  <line x1="58" x2="58" y1="1153.5" y2="387" class="net_241,242,243,244,245,246,247,248,249,250,251,252,253,254,255,256"/>
  <line x1="58" x2="89.33333333333333" y1="387" y2="387" class="net_241,242,243,244,245,246,247,248,249,250,251,252,253,254,255,256"/>
  <line x1="257" x2="305" y1="455.5" y2="455.5" class="net_2"/>
  <line x1="305" x2="305" y1="455.5" y2="112" class="net_2"/>
  <line x1="305" x2="1545" y1="112" y2="112" class="net_2"/>
  <line x1="1545" x2="1545" y1="112" y2="113.5" class="net_2"/>
  <circle cx="305" cy="455.5" r="2" style="fill:#000" class="net_2"/>
  <line x1="1545" x2="1595" y1="113.5" y2="113.5" class="net_2"/>
  <line x1="257" x2="305" y1="455.5" y2="455.5" class="net_2"/>
  <line x1="305" x2="305" y1="455.5" y2="297.5" class="net_2"/>
  <circle cx="305" cy="297.5" r="2" style="fill:#000" class="net_2"/>
  <line x1="305" x2="860" y1="297.5" y2="297.5" class="net_2"/>
  <line x1="257" x2="305" y1="455.5" y2="455.5" class="net_2"/>
  <line x1="305" x2="305" y1="455.5" y2="940.5" class="net_2"/>
  <line x1="305" x2="438" y1="940.5" y2="940.5" class="net_2"/>
  <line x1="257" x2="1264" y1="455.5" y2="455.5" class="net_2"/>
  <line x1="1264" x2="1264" y1="455.5" y2="457" class="net_2"/>
  <line x1="1264" x2="1415" y1="457" y2="457" class="net_2"/>
  <line x1="1331" x2="1595" y1="133.5" y2="133.5" class="net_257,258,259,260,261,262,263,264,265,266,267,268,269,270,271,272"/>
  <line x1="594" x2="820" y1="220.5" y2="220.5" class="net_4"/>
  <line x1="820" x2="820" y1="220.5" y2="166" class="net_4"/>
  <line x1="820" x2="1545" y1="166" y2="166" class="net_4"/>
  <line x1="1545" x2="1545" y1="166" y2="153.5" class="net_4"/>
  <circle cx="820" cy="220.5" r="2" style="fill:#000" class="net_4"/>
  <circle cx="820" cy="166" r="2" style="fill:#000" class="net_4"/>
  <line x1="1545" x2="1595" y1="153.5" y2="153.5" class="net_4"/>
  <line x1="594" x2="820" y1="220.5" y2="220.5" class="net_4"/>
  <line x1="820" x2="820" y1="220.5" y2="337.5" class="net_4"/>
  <line x1="820" x2="860" y1="337.5" y2="337.5" class="net_4"/>
  <line x1="594" x2="820" y1="220.5" y2="220.5" class="net_4"/>
  <line x1="820" x2="820" y1="220.5" y2="38" class="net_4"/>
  <line x1="820" x2="1595" y1="38" y2="38" class="net_4"/>
  <line x1="594" x2="1045" y1="220.5" y2="220.5" class="net_4"/>
  <line x1="1332" x2="1545" y1="199.5" y2="199.5" class="net_289"/>
  <line x1="1545" x2="1545" y1="199.5" y2="173.5" class="net_289"/>
  <line x1="1545" x2="1595" y1="173.5" y2="173.5" class="net_289"/>
  <line x1="596" x2="810" y1="319" y2="319" class="net_209"/>
  <line x1="810" x2="810" y1="319" y2="317.5" class="net_209"/>
  <line x1="810" x2="860" y1="317.5" y2="317.5" class="net_209"/>
  <line x1="597" x2="810" y1="372" y2="372" class="net_290"/>
  <line x1="810" x2="810" y1="372" y2="357.5" class="net_290"/>
  <line x1="810" x2="860" y1="357.5" y2="357.5" class="net_290"/>
  <line x1="181" x2="209" y1="614.5" y2="614.5" class="net_3"/>
  <line x1="209" x2="209" y1="614.5" y2="189.5" class="net_3"/>
  <circle cx="209" cy="614.5" r="2" style="fill:#000" class="net_3"/>
  <line x1="209" x2="247" y1="189.5" y2="189.5" class="net_3"/>
  <line x1="181" x2="209" y1="614.5" y2="614.5" class="net_3"/>
  <line x1="209" x2="209" y1="614.5" y2="1123.5" class="net_3"/>
  <line x1="209" x2="355" y1="1123.5" y2="1123.5" class="net_3"/>
  <line x1="355" x2="355" y1="1123.5" y2="960.5" class="net_3"/>
  <line x1="355" x2="438" y1="960.5" y2="960.5" class="net_3"/>
  <line x1="181" x2="1284" y1="614.5" y2="614.5" class="net_3"/>
  <line x1="1284" x2="1284" y1="614.5" y2="537" class="net_3"/>
  <line x1="1284" x2="1415" y1="537" y2="537" class="net_3"/>
  <line x1="1165" x2="1301" y1="199.5" y2="199.5" class="net_291,292"/>
  <line x1="455.66666666666663" x2="544" y1="223" y2="223" class="net_291,293"/>
  <line x1="544" x2="544" y1="223" y2="372" class="net_291,293"/>
  <line x1="544" x2="566" y1="372" y2="372" class="net_291,293"/>
  <line x1="42" x2="89.33333333333333" y1="402" y2="402" class="net_487,488,489,490,491,492,493,494,495,496,497,498,499,500,501,502"/>
  <line x1="111.33333333333333" x2="1030" y1="394.5" y2="394.5" class="net_294"/>
  <line x1="1030" x2="1030" y1="394.5" y2="235.5" class="net_294"/>
  <line x1="1030" x2="1045" y1="235.5" y2="235.5" class="net_294"/>
  <line x1="111.33333333333333" x2="123" y1="394.5" y2="394.5" class="net_294"/>
  <line x1="123" x2="123" y1="394.5" y2="1143.5" class="net_294"/>
  <line x1="123" x2="168.33333333333334" y1="1143.5" y2="1143.5" class="net_294"/>
  <circle cx="123" cy="394.5" r="2" style="fill:#000" class="net_294"/>
  <line x1="168.33333333333334" x2="168.33333333333334" y1="1143.5" y2="1128.5" class="net_294"/>
  <line x1="113" x2="143" y1="134" y2="134" class="net_503,504,505,506,507,508,509,510,511,512,513,514,515,516,517,518,519,520,521,522,523,524,525,526,527,528,529,530,531,532,533,534"/>
  <line x1="143" x2="143" y1="134" y2="634.5" class="net_503,504,505,506,507,508,509,510,511,512,513,514,515,516,517,518,519,520,521,522,523,524,525,526,527,528,529,530,531,532,533,534"/>
  <line x1="143" x2="199" y1="634.5" y2="634.5" class="net_503,504,505,506,507,508,509,510,511,512,513,514,515,516,517,518,519,520,521,522,523,524,525,526,527,528,529,530,531,532,533,534"/>
  <line x1="199" x2="199" y1="634.5" y2="489.5" class="net_503,504,505,506,507,508,509,510,511,512,513,514,515,516,517,518,519,520,521,522,523,524,525,526,527,528,529,530,531,532,533,534"/>
  <line x1="199" x2="810" y1="489.5" y2="489.5" class="net_503,504,505,506,507,508,509,510,511,512,513,514,515,516,517,518,519,520,521,522,523,524,525,526,527,528,529,530,531,532,533,534"/>
  <line x1="810" x2="810" y1="489.5" y2="505.5" class="net_503,504,505,506,507,508,509,510,511,512,513,514,515,516,517,518,519,520,521,522,523,524,525,526,527,528,529,530,531,532,533,534"/>
  <circle cx="143" cy="634.5" r="2" style="fill:#000" class="net_503,504,505,506,507,508,509,510,511,512,513,514,515,516,517,518,519,520,521,522,523,524,525,526,527,528,529,530,531,532,533,534"/>
  <circle cx="199" cy="489.5" r="2" style="fill:#000" class="net_503,504,505,506,507,508,509,510,511,512,513,514,515,516,517,518,519,520,521,522,523,524,525,526,527,528,529,530,531,532,533,534"/>
  <circle cx="810" cy="489.5" r="2" style="fill:#000" class="net_503,504,505,506,507,508,509,510,511,512,513,514,515,516,517,518,519,520,521,522,523,524,525,526,527,528,529,530,531,532,533,534"/>
  <line x1="810" x2="896.3333333333334" y1="505.5" y2="505.5" class="net_503,504,505,506,507,508,509,510,511,512,513,514,515,516,517,518,519,520,521,522,523,524,525,526,527,528,529,530,531,532,533,534"/>
  <line x1="113" x2="143" y1="134" y2="134" class="net_503,504,505,506,507,508,509,510,511,512,513,514,515,516,517,518,519,520,521,522,523,524,525,526,527,528,529,530,531,532,533,534"/>
  <line x1="143" x2="143" y1="134" y2="405.5" class="net_503,504,505,506,507,508,509,510,511,512,513,514,515,516,517,518,519,520,521,522,523,524,525,526,527,528,529,530,531,532,533,534"/>
  <circle cx="143" cy="405.5" r="2" style="fill:#000" class="net_503,504,505,506,507,508,509,510,511,512,513,514,515,516,517,518,519,520,521,522,523,524,525,526,527,528,529,530,531,532,533,534"/>
  <line x1="143" x2="1048.3333333333333" y1="405.5" y2="405.5" class="net_503,504,505,506,507,508,509,510,511,512,513,514,515,516,517,518,519,520,521,522,523,524,525,526,527,528,529,530,531,532,533,534"/>
  <line x1="113" x2="143" y1="134" y2="134" class="net_503,504,505,506,507,508,509,510,511,512,513,514,515,516,517,518,519,520,521,522,523,524,525,526,527,528,529,530,531,532,533,534"/>
  <line x1="143" x2="143" y1="134" y2="489.5" class="net_503,504,505,506,507,508,509,510,511,512,513,514,515,516,517,518,519,520,521,522,523,524,525,526,527,528,529,530,531,532,533,534"/>
  <circle cx="143" cy="489.5" r="2" style="fill:#000" class="net_503,504,505,506,507,508,509,510,511,512,513,514,515,516,517,518,519,520,521,522,523,524,525,526,527,528,529,530,531,532,533,534"/>
  <line x1="143" x2="1048.3333333333333" y1="489.5" y2="489.5" class="net_503,504,505,506,507,508,509,510,511,512,513,514,515,516,517,518,519,520,521,522,523,524,525,526,527,528,529,530,531,532,533,534"/>
  <line x1="113" x2="143" y1="134" y2="134" class="net_503,504,505,506,507,508,509,510,511,512,513,514,515,516,517,518,519,520,521,522,523,524,525,526,527,528,529,530,531,532,533,534"/>
  <line x1="143" x2="143" y1="134" y2="1103.5" class="net_503,504,505,506,507,508,509,510,511,512,513,514,515,516,517,518,519,520,521,522,523,524,525,526,527,528,529,530,531,532,533,534"/>
  <line x1="143" x2="158.33333333333334" y1="1103.5" y2="1103.5" class="net_503,504,505,506,507,508,509,510,511,512,513,514,515,516,517,518,519,520,521,522,523,524,525,526,527,528,529,530,531,532,533,534"/>
  <line x1="653.3333333333334" x2="810" y1="770.5" y2="770.5" class="net_199,200,201,202,203,204,205,206"/>
  <line x1="810" x2="810" y1="770.5" y2="520.5" class="net_199,200,201,202,203,204,205,206"/>
  <line x1="810" x2="896.3333333333334" y1="520.5" y2="520.5" class="net_199,200,201,202,203,204,205,206"/>
  <line x1="918.3333333333334" x2="1020" y1="513" y2="513" class="net_295,296,297,298,299,300,301,302,303,304,305,306,307,308,309,310,311,312,313,314,315,316,317,318,319,320,321,322,323,324,325,326"/>
  <line x1="1020" x2="1020" y1="513" y2="509.5" class="net_295,296,297,298,299,300,301,302,303,304,305,306,307,308,309,310,311,312,313,314,315,316,317,318,319,320,321,322,323,324,325,326"/>
  <line x1="1020" x2="1048.3333333333333" y1="509.5" y2="509.5" class="net_295,296,297,298,299,300,301,302,303,304,305,306,307,308,309,310,311,312,313,314,315,316,317,318,319,320,321,322,323,324,325,326"/>
  <line x1="653.3333333333334" x2="1058.3333333333333" y1="790.5" y2="790.5" class="net_207"/>
  <line x1="1058.3333333333333" x2="1058.3333333333333" y1="790.5" y2="514.5" class="net_207"/>
  <line x1="257" x2="335" y1="645.5" y2="645.5" class="net_5,6,7,8,9,10,11,12"/>
  <line x1="335" x2="335" y1="645.5" y2="780.5" class="net_5,6,7,8,9,10,11,12"/>
  <line x1="335" x2="438" y1="780.5" y2="780.5" class="net_5,6,7,8,9,10,11,12"/>
  <line x1="257" x2="325" y1="710.5" y2="710.5" class="net_13,14,15,16,17,18,19,20"/>
  <line x1="325" x2="325" y1="710.5" y2="800.5" class="net_13,14,15,16,17,18,19,20"/>
  <line x1="325" x2="438" y1="800.5" y2="800.5" class="net_13,14,15,16,17,18,19,20"/>
  <line x1="257" x2="315" y1="775.5" y2="775.5" class="net_38,39,40,41,42,43,44,45,46,47,48,49,50,51,52,53,54,55,56,57,58,59,60,61,62,63,64,65,66,67,68,69"/>
  <line x1="315" x2="315" y1="775.5" y2="820.5" class="net_38,39,40,41,42,43,44,45,46,47,48,49,50,51,52,53,54,55,56,57,58,59,60,61,62,63,64,65,66,67,68,69"/>
  <line x1="315" x2="438" y1="820.5" y2="820.5" class="net_38,39,40,41,42,43,44,45,46,47,48,49,50,51,52,53,54,55,56,57,58,59,60,61,62,63,64,65,66,67,68,69"/>
  <line x1="257" x2="438" y1="840.5" y2="840.5" class="net_70,71,72,73,74,75,76,77,78,79,80,81,82,83,84,85,86,87,88,89,90,91,92,93,94,95,96,97,98,99,100,101"/>
  <line x1="257" x2="315" y1="905.5" y2="905.5" class="net_102,103,104,105,106,107,108,109,110,111,112,113,114,115,116,117,118,119,120,121,122,123,124,125,126,127,128,129,130,131,132,133"/>
  <line x1="315" x2="315" y1="905.5" y2="860.5" class="net_102,103,104,105,106,107,108,109,110,111,112,113,114,115,116,117,118,119,120,121,122,123,124,125,126,127,128,129,130,131,132,133"/>
  <line x1="315" x2="438" y1="860.5" y2="860.5" class="net_102,103,104,105,106,107,108,109,110,111,112,113,114,115,116,117,118,119,120,121,122,123,124,125,126,127,128,129,130,131,132,133"/>
  <line x1="257" x2="325" y1="970.5" y2="970.5" class="net_134,135,136,137,138,139,140,141,142,143,144,145,146,147,148,149,150,151,152,153,154,155,156,157,158,159,160,161,162,163,164,165"/>
  <line x1="325" x2="325" y1="970.5" y2="880.5" class="net_134,135,136,137,138,139,140,141,142,143,144,145,146,147,148,149,150,151,152,153,154,155,156,157,158,159,160,161,162,163,164,165"/>
  <line x1="325" x2="438" y1="880.5" y2="880.5" class="net_134,135,136,137,138,139,140,141,142,143,144,145,146,147,148,149,150,151,152,153,154,155,156,157,158,159,160,161,162,163,164,165"/>
  <line x1="257" x2="335" y1="1035.5" y2="1035.5" class="net_166,167,168,169,170,171,172,173,174,175,176,177,178,179,180,181,182,183,184,185,186,187,188,189,190,191,192,193,194,195,196,197"/>
  <line x1="335" x2="335" y1="1035.5" y2="900.5" class="net_166,167,168,169,170,171,172,173,174,175,176,177,178,179,180,181,182,183,184,185,186,187,188,189,190,191,192,193,194,195,196,197"/>
  <line x1="335" x2="438" y1="900.5" y2="900.5" class="net_166,167,168,169,170,171,172,173,174,175,176,177,178,179,180,181,182,183,184,185,186,187,188,189,190,191,192,193,194,195,196,197"/>
  <line x1="259" x2="345" y1="1091" y2="1091" class="net_391"/>
  <line x1="345" x2="345" y1="1091" y2="920.5" class="net_391"/>
  <line x1="345" x2="438" y1="920.5" y2="920.5" class="net_391"/>
  <line x1="1140" x2="1264" y1="393" y2="393" class="net_327"/>
  <line x1="1264" x2="1264" y1="393" y2="437" class="net_327"/>
  <line x1="1264" x2="1415" y1="437" y2="437" class="net_327"/>
  <line x1="1140" x2="1415" y1="477" y2="477" class="net_359,360,361,362,363,364,365,366"/>
  <line x1="1138" x2="1264" y1="529.5" y2="529.5" class="net_30,31,32,33,34,35,36,37"/>
  <line x1="1264" x2="1264" y1="529.5" y2="497" class="net_30,31,32,33,34,35,36,37"/>
  <line x1="1264" x2="1415" y1="497" y2="497" class="net_30,31,32,33,34,35,36,37"/>
  <line x1="1138" x2="1274" y1="594.5" y2="594.5" class="net_21,22,23,24,25,26,27,28,29"/>
  <line x1="1274" x2="1274" y1="594.5" y2="517" class="net_21,22,23,24,25,26,27,28,29"/>
  <line x1="1274" x2="1415" y1="517" y2="517" class="net_21,22,23,24,25,26,27,28,29"/>
  <line x1="1446" x2="1595" y1="437" y2="437" class="net_198"/>
  <line x1="469" x2="534" y1="780.5" y2="780.5" class="net_199,200,201,202,203,204,205,206,207"/>
  <line x1="534" x2="534" y1="780.5" y2="810" class="net_199,200,201,202,203,204,205,206,207"/>
  <circle cx="534" cy="780.5" r="2" style="fill:#000" class="net_199,200,201,202,203,204,205,206,207"/>
  <line x1="534" x2="1595" y1="810" y2="810" class="net_199,200,201,202,203,204,205,206,207"/>
  <line x1="469" x2="648.3333333333334" y1="780.5" y2="780.5" class="net_199,200,201,202,203,204,205,206,207"/>
  <line x1="272" x2="1159" y1="189.5" y2="189.5" class="net_291"/>
  <line x1="272" x2="325" y1="189.5" y2="189.5" class="net_291"/>
  <line x1="325" x2="325" y1="189.5" y2="213" class="net_291"/>
  <circle cx="325" cy="189.5" r="2" style="fill:#000" class="net_291"/>
  <line x1="325" x2="449.66666666666663" y1="213" y2="213" class="net_291"/>
  <line x1="1075" x2="1085" y1="228" y2="228" class="net_292"/>
  <line x1="1085" x2="1085" y1="228" y2="209.5" class="net_292"/>
  <line x1="1085" x2="1159" y1="209.5" y2="209.5" class="net_292"/>
  <line x1="1625" x2="1765" y1="45.5" y2="45.5" class="net_293"/>
  <line x1="1765" x2="1765" y1="45.5" y2="12" class="net_293"/>
  <line x1="1765" x2="315" y1="12" y2="12" class="net_293"/>
  <line x1="315" x2="315" y1="12" y2="233" class="net_293"/>
  <line x1="315" x2="449.66666666666663" y1="233" y2="233" class="net_293"/>
  <line x1="1176.3333333333333" x2="1264" y1="61.5" y2="61.5" class="net_257,258,259,260,261,262,263,264,265,266,267,268,269,270,271,272,273,274,275,276,277,278,279,280,281,282,283,284,285,286,287,288"/>
  <line x1="1264" x2="1264" y1="61.5" y2="156" class="net_257,258,259,260,261,262,263,264,265,266,267,268,269,270,271,272,273,274,275,276,277,278,279,280,281,282,283,284,285,286,287,288"/>
  <line x1="1264" x2="1326.5" y1="156" y2="156" class="net_257,258,259,260,261,262,263,264,265,266,267,268,269,270,271,272,273,274,275,276,277,278,279,280,281,282,283,284,285,286,287,288"/>
  <line x1="1326.5" x2="1326.5" y1="156" y2="144" class="net_257,258,259,260,261,262,263,264,265,266,267,268,269,270,271,272,273,274,275,276,277,278,279,280,281,282,283,284,285,286,287,288"/>
  <line x1="460.66666666666663" x2="534" y1="275" y2="275" class="net_209,210,211,212,213,214,215,216,217,218,219,220,221,222,223,224,225,226,227,228,229,230,231,232,233,234,235,236,237,238,239,240"/>
  <line x1="534" x2="534" y1="275" y2="341.5" class="net_209,210,211,212,213,214,215,216,217,218,219,220,221,222,223,224,225,226,227,228,229,230,231,232,233,234,235,236,237,238,239,240"/>
  <line x1="534" x2="591.5" y1="341.5" y2="341.5" class="net_209,210,211,212,213,214,215,216,217,218,219,220,221,222,223,224,225,226,227,228,229,230,231,232,233,234,235,236,237,238,239,240"/>
  <line x1="591.5" x2="591.5" y1="341.5" y2="329.5" class="net_209,210,211,212,213,214,215,216,217,218,219,220,221,222,223,224,225,226,227,228,229,230,231,232,233,234,235,236,237,238,239,240"/>
  <line x1="178.33333333333334" x2="254.5" y1="1113.5" y2="1113.5" class="net_391,392,393,394,395,396,397,398,399,400,401,402,403,404,405,406,407,408,409,410,411,412,413,414,415,416,417,418,419,420,421,422"/>
  <line x1="254.5" x2="254.5" y1="1113.5" y2="1101.5" class="net_391,392,393,394,395,396,397,398,399,400,401,402,403,404,405,406,407,408,409,410,411,412,413,414,415,416,417,418,419,420,421,422"/>
  <line x1="1068.3333333333333" x2="1135.5" y1="415.5" y2="415.5" class="net_327,328,329,330,331,332,333,334,335,336,337,338,339,340,341,342,343,344,345,346,347,348,349,350,351,352,353,354,355,356,357,358"/>
  <line x1="1135.5" x2="1135.5" y1="415.5" y2="403.5" class="net_327,328,329,330,331,332,333,334,335,336,337,338,339,340,341,342,343,344,345,346,347,348,349,350,351,352,353,354,355,356,357,358"/>
  <line x1="1068.3333333333333" x2="1135.5" y1="499.5" y2="499.5" class="net_359,360,361,362,363,364,365,366,367,368,369,370,371,372,373,374,375,376,377,378,379,380,381,382,383,384,385,386,387,388,389,390"/>
  <line x1="1135.5" x2="1135.5" y1="499.5" y2="487.5" class="net_359,360,361,362,363,364,365,366,367,368,369,370,371,372,373,374,375,376,377,378,379,380,381,382,383,384,385,386,387,388,389,390"/>
</svg>
