<svg xmlns="http://www.w3.org/2000/svg" xmlns:xlink="http://www.w3.org/1999/xlink" xmlns:s="https://github.com/nturley/netlistsvg" width="1468" height="517.5">
  <style>svg {
    stroke:#000;
    fill:none;
  }
  text {
    fill:#000;
    stroke:none;
    font-size:10px;
    font-weight: bold;
    font-family: "Courier New", monospace;
  }
  .nodelabel {
    text-anchor: middle;
  }
  .inputPortLabel {
    text-anchor: end;
  }
  .splitjoinBody {
    fill:#000;
  }</style>
  <g s:type="add" transform="translate(369.3333333333333,392.5)" s:width="25" s:height="25" id="cell_$add$PWM_controller.v:38$5">
    <s:alias val="$add"/>
    <circle r="12.5" cx="12.5" cy="12.5" class="cell_$add$PWM_controller.v:38$5"/>
    <line x1="7.5" x2="17.5" y1="12.5" y2="12.5" class="cell_$add$PWM_controller.v:38$5"/>
    <line x1="12.5" x2="12.5" y1="7.5" y2="17.5" class="cell_$add$PWM_controller.v:38$5"/>
    <g s:x="3" s:y="5" s:pid="A"/>
    <g s:x="3" s:y="20" s:pid="B"/>
    <g s:x="25" s:y="12.5" s:pid="Y"/>
  </g>
  <g s:type="add" transform="translate(1392,38.5)" s:width="25" s:height="25" id="cell_$add$PWM_controller.v:40$6">
    <s:alias val="$add"/>
    <circle r="12.5" cx="12.5" cy="12.5" class="cell_$add$PWM_controller.v:40$6"/>
    <line x1="7.5" x2="17.5" y1="12.5" y2="12.5" class="cell_$add$PWM_controller.v:40$6"/>
    <line x1="12.5" x2="12.5" y1="7.5" y2="17.5" class="cell_$add$PWM_controller.v:40$6"/>
    <g s:x="3" s:y="5" s:pid="A"/>
    <g s:x="3" s:y="20" s:pid="B"/>
    <g s:x="25" s:y="12.5" s:pid="Y"/>
  </g>
  <g s:type="generic" transform="translate(597,374.5)" s:width="30" s:height="40" id="cell_$auto$ff.cc:266:slice$35">
    <text x="15" y="-4" class="nodelabel cell_$auto$ff.cc:266:slice$35" s:attribute="ref">$sdffe</text>
    <rect width="30" height="80" s:generic="body" class="cell_$auto$ff.cc:266:slice$35"/>
    <g transform="translate(0,10)" s:x="0" s:y="10" s:pid="in0" id="port_$auto$ff.cc:266:slice$35~CLK">
      <text x="-3" y="-4" class="inputPortLabel cell_$auto$ff.cc:266:slice$35">CLK</text>
    </g>
    <g transform="translate(0,30)" s:x="0" s:y="10" s:pid="in0" id="port_$auto$ff.cc:266:slice$35~D">
      <text x="-3" y="-4" class="inputPortLabel cell_$auto$ff.cc:266:slice$35">D</text>
    </g>
    <g transform="translate(0,50)" s:x="0" s:y="10" s:pid="in0" id="port_$auto$ff.cc:266:slice$35~EN">
      <text x="-3" y="-4" class="inputPortLabel cell_$auto$ff.cc:266:slice$35">EN</text>
    </g>
    <g transform="translate(0,70)" s:x="0" s:y="10" s:pid="in0" id="port_$auto$ff.cc:266:slice$35~SRST">
      <text x="-3" y="-4" class="inputPortLabel cell_$auto$ff.cc:266:slice$35">SRST</text>
    </g>
    <g transform="translate(30,10)" s:x="30" s:y="10" s:pid="out0" id="port_$auto$ff.cc:266:slice$35~Q">
      <text x="5" y="-4" style="fill:#000; stroke:none" class="cell_$auto$ff.cc:266:slice$35">Q</text>
    </g>
  </g>
  <g s:type="generic" transform="translate(1213,186.5)" s:width="30" s:height="40" id="cell_$auto$ff.cc:266:slice$37">
    <text x="15" y="-4" class="nodelabel cell_$auto$ff.cc:266:slice$37" s:attribute="ref">$sdffe</text>
    <rect width="30" height="80" s:generic="body" class="cell_$auto$ff.cc:266:slice$37"/>
    <g transform="translate(0,10)" s:x="0" s:y="10" s:pid="in0" id="port_$auto$ff.cc:266:slice$37~CLK">
      <text x="-3" y="-4" class="inputPortLabel cell_$auto$ff.cc:266:slice$37">CLK</text>
    </g>
    <g transform="translate(0,30)" s:x="0" s:y="10" s:pid="in0" id="port_$auto$ff.cc:266:slice$37~D">
      <text x="-3" y="-4" class="inputPortLabel cell_$auto$ff.cc:266:slice$37">D</text>
    </g>
    <g transform="translate(0,50)" s:x="0" s:y="10" s:pid="in0" id="port_$auto$ff.cc:266:slice$37~EN">
      <text x="-3" y="-4" class="inputPortLabel cell_$auto$ff.cc:266:slice$37">EN</text>
    </g>
    <g transform="translate(0,70)" s:x="0" s:y="10" s:pid="in0" id="port_$auto$ff.cc:266:slice$37~SRST">
      <text x="-3" y="-4" class="inputPortLabel cell_$auto$ff.cc:266:slice$37">SRST</text>
    </g>
    <g transform="translate(30,10)" s:x="30" s:y="10" s:pid="out0" id="port_$auto$ff.cc:266:slice$37~Q">
      <text x="5" y="-4" style="fill:#000; stroke:none" class="cell_$auto$ff.cc:266:slice$37">Q</text>
    </g>
  </g>
  <g s:type="generic" transform="translate(597,33)" s:width="30" s:height="40" id="cell_$auto$ff.cc:266:slice$43">
    <text x="15" y="-4" class="nodelabel cell_$auto$ff.cc:266:slice$43" s:attribute="ref">$sdffe</text>
    <rect width="30" height="80" s:generic="body" class="cell_$auto$ff.cc:266:slice$43"/>
    <g transform="translate(0,10)" s:x="0" s:y="10" s:pid="in0" id="port_$auto$ff.cc:266:slice$43~CLK">
      <text x="-3" y="-4" class="inputPortLabel cell_$auto$ff.cc:266:slice$43">CLK</text>
    </g>
    <g transform="translate(0,30)" s:x="0" s:y="10" s:pid="in0" id="port_$auto$ff.cc:266:slice$43~D">
      <text x="-3" y="-4" class="inputPortLabel cell_$auto$ff.cc:266:slice$43">D</text>
    </g>
    <g transform="translate(0,50)" s:x="0" s:y="10" s:pid="in0" id="port_$auto$ff.cc:266:slice$43~EN">
      <text x="-3" y="-4" class="inputPortLabel cell_$auto$ff.cc:266:slice$43">EN</text>
    </g>
    <g transform="translate(0,70)" s:x="0" s:y="10" s:pid="in0" id="port_$auto$ff.cc:266:slice$43~SRST">
      <text x="-3" y="-4" class="inputPortLabel cell_$auto$ff.cc:266:slice$43">SRST</text>
    </g>
    <g transform="translate(30,10)" s:x="30" s:y="10" s:pid="out0" id="port_$auto$ff.cc:266:slice$43~Q">
      <text x="5" y="-4" style="fill:#000; stroke:none" class="cell_$auto$ff.cc:266:slice$43">Q</text>
    </g>
  </g>
  <g s:type="not" transform="translate(95,129.5)" s:width="30" s:height="20" id="cell_$auto$opt_dff.cc:250:combine_resets$39">
    <s:alias val="$_NOT_"/>
    <s:alias val="$not"/>
    <s:alias val="$logic_not"/>
    <path d="M0,0 L0,20 L20,10 Z" class="cell_$auto$opt_dff.cc:250:combine_resets$39"/>
    <circle cx="23" cy="10" r="3" class="cell_$auto$opt_dff.cc:250:combine_resets$39"/>
    <g s:x="0" s:y="10" s:pid="A"/>
    <g s:x="25" s:y="10" s:pid="Y"/>
  </g>
  <g s:type="generic" transform="translate(304,119)" s:width="30" s:height="40" id="cell_$auto$opt_dff.cc:254:combine_resets$42">
    <text x="15" y="-4" class="nodelabel cell_$auto$opt_dff.cc:254:combine_resets$42" s:attribute="ref">$reduce_or</text>
    <rect width="30" height="20" s:generic="body" class="cell_$auto$opt_dff.cc:254:combine_resets$42"/>
    <g transform="translate(0,10)" s:x="0" s:y="10" s:pid="in0" id="port_$auto$opt_dff.cc:254:combine_resets$42~A">
      <text x="-3" y="-4" class="inputPortLabel cell_$auto$opt_dff.cc:254:combine_resets$42">A</text>
    </g>
    <g transform="translate(30,10)" s:x="30" s:y="10" s:pid="out0" id="port_$auto$opt_dff.cc:254:combine_resets$42~Y">
      <text x="5" y="-4" style="fill:#000; stroke:none" class="cell_$auto$opt_dff.cc:254:combine_resets$42">Y</text>
    </g>
  </g>
  <g s:type="eq" transform="translate(1392,98.5)" s:width="25" s:height="25" id="cell_$eq$PWM_controller.v:35$3">
    <s:alias val="$eq"/>
    <circle r="12.5" cx="12.5" cy="12.5" class="cell_$eq$PWM_controller.v:35$3"/>
    <line x1="7.5" x2="17.5" y1="10" y2="10" class="cell_$eq$PWM_controller.v:35$3"/>
    <line x1="7.5" x2="17.5" y1="15" y2="15" class="cell_$eq$PWM_controller.v:35$3"/>
    <g s:x="3" s:y="5" s:pid="A"/>
    <g s:x="3" s:y="20" s:pid="B"/>
    <g s:x="25" s:y="12.5" s:pid="Y"/>
  </g>
  <g s:type="le" transform="translate(822.3333333333334,365)" s:width="25" s:height="25" id="cell_$le$PWM_controller.v:44$7">
    <s:alias val="$le"/>
    <circle r="12.5" cx="12.5" cy="12.5" class="cell_$le$PWM_controller.v:44$7"/>
    <line x1="7.5" x2="17.5" y1="12.5" y2="7.5" class="cell_$le$PWM_controller.v:44$7"/>
    <line x1="7.5" x2="17.5" y1="12.5" y2="17.5" class="cell_$le$PWM_controller.v:44$7"/>
    <line x1="7.5" x2="17.5" y1="15" y2="20" class="cell_$le$PWM_controller.v:44$7"/>
    <g s:x="3" s:y="5" s:pid="A"/>
    <g s:x="3" s:y="20" s:pid="B"/>
    <g s:x="25" s:y="12.5" s:pid="Y"/>
  </g>
  <g s:type="and" transform="translate(95,235.5)" s:width="30" s:height="25" id="cell_$logic_and$PWM_controller.v:35$4">
    <s:alias val="$and"/>
    <s:alias val="$logic_and"/>
    <s:alias val="$_AND_"/>
    <path d="M0,0 L0,25 L15,25 A15 12.5 0 0 0 15,0 Z" class="cell_$logic_and$PWM_controller.v:35$4"/>
    <g s:x="0" s:y="5" s:pid="A"/>
    <g s:x="0" s:y="20" s:pid="B"/>
    <g s:x="30" s:y="12.5" s:pid="Y"/>
  </g>
  <g s:type="and" transform="translate(968,372.5)" s:width="30" s:height="25" id="cell_$logic_and$PWM_controller.v:44$9">
    <s:alias val="$and"/>
    <s:alias val="$logic_and"/>
    <s:alias val="$_AND_"/>
    <path d="M0,0 L0,25 L15,25 A15 12.5 0 0 0 15,0 Z" class="cell_$logic_and$PWM_controller.v:44$9"/>
    <g s:x="0" s:y="5" s:pid="A"/>
    <g s:x="0" s:y="20" s:pid="B"/>
    <g s:x="30" s:y="12.5" s:pid="Y"/>
  </g>
  <g s:type="generic" transform="translate(783,435)" s:width="30" s:height="40" id="cell_$ne$PWM_controller.v:44$8">
    <text x="15" y="-4" class="nodelabel cell_$ne$PWM_controller.v:44$8" s:attribute="ref">$reduce_bool</text>
    <rect width="30" height="20" s:generic="body" class="cell_$ne$PWM_controller.v:44$8"/>
    <g transform="translate(0,10)" s:x="0" s:y="10" s:pid="in0" id="port_$ne$PWM_controller.v:44$8~A">
      <text x="-3" y="-4" class="inputPortLabel cell_$ne$PWM_controller.v:44$8">A</text>
    </g>
    <g transform="translate(30,10)" s:x="30" s:y="10" s:pid="out0" id="port_$ne$PWM_controller.v:44$8~Y">
      <text x="5" y="-4" style="fill:#000; stroke:none" class="cell_$ne$PWM_controller.v:44$8">Y</text>
    </g>
  </g>
  <g s:type="mux" transform="translate(1066.3333333333333,317.5)" s:width="20" s:height="40" id="cell_$ternary$PWM_controller.v:44$10">
    <s:alias val="$pmux"/>
    <s:alias val="$mux"/>
    <s:alias val="$_MUX_"/>
    <path d="M0,0 L20,10 L20,30 L0,40 Z" class="cell_$ternary$PWM_controller.v:44$10"/>
    <g s:x="0" s:y="10" s:pid="A"/>
    <g s:x="0" s:y="30" s:pid="B"/>
    <g s:x="10" s:y="35" s:pid="S"/>
    <g s:x="20" s:y="20" s:pid="Y"/>
  </g>
  <g s:type="inputExt" transform="translate(304,187)" s:width="30" s:height="20" id="cell_clk_i">
    <text x="15" y="-4" class="nodelabel cell_clk_i" s:attribute="ref">clk_i</text>
    <s:alias val="$_inputExt_"/>
    <path d="M0,0 L0,20 L15,20 L30,10 L15,0 Z" class="cell_clk_i"/>
    <g s:x="28" s:y="10" s:pid="Y"/>
  </g>
  <g s:type="inputExt" transform="translate(12,86)" s:width="30" s:height="20" id="cell_clk_en_i">
    <text x="15" y="-4" class="nodelabel cell_clk_en_i" s:attribute="ref">clk_en_i</text>
    <s:alias val="$_inputExt_"/>
    <path d="M0,0 L0,20 L15,20 L30,10 L15,0 Z" class="cell_clk_en_i"/>
    <g s:x="28" s:y="10" s:pid="Y"/>
  </g>
  <g s:type="inputExt" transform="translate(12,483.5)" s:width="30" s:height="20" id="cell_rstn_i">
    <text x="15" y="-4" class="nodelabel cell_rstn_i" s:attribute="ref">rstn_i</text>
    <s:alias val="$_inputExt_"/>
    <path d="M0,0 L0,20 L15,20 L30,10 L15,0 Z" class="cell_rstn_i"/>
    <g s:x="28" s:y="10" s:pid="Y"/>
  </g>
  <g s:type="inputExt" transform="translate(160,387.5)" s:width="30" s:height="20" id="cell_counterValue_i">
    <text x="15" y="-4" class="nodelabel cell_counterValue_i" s:attribute="ref">counterValue_i</text>
    <s:alias val="$_inputExt_"/>
    <path d="M0,0 L0,20 L15,20 L30,10 L15,0 Z" class="cell_counterValue_i"/>
    <g s:x="28" s:y="10" s:pid="Y"/>
  </g>
  <g s:type="inputExt" transform="translate(160,452.5)" s:width="30" s:height="20" id="cell_minCounterValue_i">
    <text x="15" y="-4" class="nodelabel cell_minCounterValue_i" s:attribute="ref">minCounterValue_i</text>
    <s:alias val="$_inputExt_"/>
    <path d="M0,0 L0,20 L15,20 L30,10 L15,0 Z" class="cell_minCounterValue_i"/>
    <g s:x="28" s:y="10" s:pid="Y"/>
  </g>
  <g s:type="inputExt" transform="translate(1033,218)" s:width="30" s:height="20" id="cell_periodCounterValue_i">
    <text x="15" y="-4" class="nodelabel cell_periodCounterValue_i" s:attribute="ref">periodCounterValue_i</text>
    <s:alias val="$_inputExt_"/>
    <path d="M0,0 L0,20 L15,20 L30,10 L15,0 Z" class="cell_periodCounterValue_i"/>
    <g s:x="28" s:y="10" s:pid="Y"/>
  </g>
  <g s:type="outputExt" transform="translate(1392,305)" s:width="30" s:height="20" id="cell_PWM_pin_o">
    <text x="15" y="-4" class="nodelabel cell_PWM_pin_o" s:attribute="ref">PWM_pin_o</text>
    <s:alias val="$_outputExt_"/>
    <path d="M30,0 L30,20 L15,20 L0,10 L15,0 Z" class="cell_PWM_pin_o"/>
    <g s:x="0" s:y="10" s:pid="A"/>
  </g>
  <g s:type="constant" transform="translate(968,218)" s:width="30" s:height="20" id="cell_00000000000000000000000000000001">
    <text x="15" y="-4" class="nodelabel cell_00000000000000000000000000000001" s:attribute="ref">0x1</text>
    <s:alias val="$_constant_"/>
    <rect width="30" height="20" class="cell_00000000000000000000000000000001"/>
    <g s:x="30" s:y="10" s:pid="Y"/>
  </g>
  <g s:type="constant" transform="translate(968,317.5)" s:width="30" s:height="20" id="cell_00000000000000000000000000000000">
    <text x="15" y="-4" class="nodelabel cell_00000000000000000000000000000000" s:attribute="ref">0x0</text>
    <s:alias val="$_constant_"/>
    <rect width="30" height="20" class="cell_00000000000000000000000000000000"/>
    <g s:x="30" s:y="10" s:pid="Y"/>
  </g>
  <g s:type="join" transform="translate(195,109)" s:width="4" s:height="40" id="cell_$join$,66,80,">
    <rect width="5" height="40" class="splitjoinBody" s:generic="body"/>
    <s:alias val="$_join_"/>
    <g s:x="5" s:y="20" s:pid="out"/>
    <g transform="translate(0,10)" s:x="0" s:y="10" s:pid="in0">
      <text x="-3" y="-4" class="inputPortLabel">0</text>
    </g>
    <g transform="translate(0,30)" s:x="0" s:y="10" s:pid="in0">
      <text x="-3" y="-4" class="inputPortLabel">1</text>
    </g>
  </g>
  <g s:type="split" transform="translate(329,53)" s:width="5" s:height="40" id="cell_$split$,34,35,36,37,38,39,40,41,42,43,44,45,46,47,48,49,50,51,52,53,54,55,56,57,58,59,60,61,62,63,64,65,">
    <rect width="5" height="20" class="splitjoinBody" s:generic="body"/>
    <s:alias val="$_split_"/>
    <g s:x="0" s:y="20" s:pid="in"/>
    <g transform="translate(4,10)" s:x="4" s:y="10" s:pid="out0">
      <text x="5" y="-4">0:5</text>
    </g>
  </g>
  <g s:type="split" transform="translate(1238,304.5)" s:width="5" s:height="40" id="cell_$split$,21,85,86,87,88,89,90,91,92,93,94,95,96,97,98,99,100,101,102,103,104,105,106,107,108,109,110,111,112,113,114,115,">
    <rect width="5" height="20" class="splitjoinBody" s:generic="body"/>
    <s:alias val="$_split_"/>
    <g s:x="0" s:y="20" s:pid="in"/>
    <g transform="translate(4,10)" s:x="4" s:y="10" s:pid="out0">
      <text x="5" y="-4">0</text>
    </g>
  </g>
  <line x1="188" x2="372.3333333333333" y1="397.5" y2="397.5" class="net_5,6,7,8,9"/>
  <line x1="188" x2="272" y1="462.5" y2="462.5" class="net_10,11,12,13,14"/>
  <line x1="272" x2="272" y1="462.5" y2="412.5" class="net_10,11,12,13,14"/>
  <line x1="272" x2="372.3333333333333" y1="412.5" y2="412.5" class="net_10,11,12,13,14"/>
  <line x1="628" x2="1395" y1="43.5" y2="43.5" class="net_28,29,30,31,32,33"/>
  <line x1="628" x2="1018" y1="43.5" y2="43.5" class="net_28,29,30,31,32,33"/>
  <line x1="1018" x2="1018" y1="43.5" y2="103.5" class="net_28,29,30,31,32,33"/>
  <circle cx="1018" cy="43.5" r="2" style="fill:#000" class="net_28,29,30,31,32,33"/>
  <line x1="1018" x2="1395" y1="103.5" y2="103.5" class="net_28,29,30,31,32,33"/>
  <line x1="628" x2="751" y1="43.5" y2="43.5" class="net_28,29,30,31,32,33"/>
  <line x1="751" x2="751" y1="43.5" y2="370" class="net_28,29,30,31,32,33"/>
  <circle cx="751" cy="43.5" r="2" style="fill:#000" class="net_28,29,30,31,32,33"/>
  <line x1="751" x2="825.3333333333334" y1="370" y2="370" class="net_28,29,30,31,32,33"/>
  <line x1="998" x2="1008" y1="228" y2="228" class="net_116,117,118,119,120,121,122,123,124,125,126,127,128,129,130,131,132,133,134,135,136,137,138,139,140,141,142,143,144,145,146,147"/>
  <line x1="1008" x2="1008" y1="228" y2="58.5" class="net_116,117,118,119,120,121,122,123,124,125,126,127,128,129,130,131,132,133,134,135,136,137,138,139,140,141,142,143,144,145,146,147"/>
  <circle cx="1008" cy="228" r="2" style="fill:#000" class="net_116,117,118,119,120,121,122,123,124,125,126,127,128,129,130,131,132,133,134,135,136,137,138,139,140,141,142,143,144,145,146,147"/>
  <line x1="1008" x2="1395" y1="58.5" y2="58.5" class="net_116,117,118,119,120,121,122,123,124,125,126,127,128,129,130,131,132,133,134,135,136,137,138,139,140,141,142,143,144,145,146,147"/>
  <line x1="998" x2="1008" y1="228" y2="228" class="net_116,117,118,119,120,121,122,123,124,125,126,127,128,129,130,131,132,133,134,135,136,137,138,139,140,141,142,143,144,145,146,147"/>
  <line x1="1008" x2="1008" y1="228" y2="347.5" class="net_116,117,118,119,120,121,122,123,124,125,126,127,128,129,130,131,132,133,134,135,136,137,138,139,140,141,142,143,144,145,146,147"/>
  <line x1="1008" x2="1066.3333333333333" y1="347.5" y2="347.5" class="net_116,117,118,119,120,121,122,123,124,125,126,127,128,129,130,131,132,133,134,135,136,137,138,139,140,141,142,143,144,145,146,147"/>
  <line x1="332" x2="552" y1="197" y2="197" class="net_2"/>
  <line x1="552" x2="552" y1="197" y2="385" class="net_2"/>
  <circle cx="552" cy="197" r="2" style="fill:#000" class="net_2"/>
  <line x1="552" x2="597" y1="385" y2="385" class="net_2"/>
  <line x1="332" x2="1213" y1="197" y2="197" class="net_2"/>
  <line x1="332" x2="552" y1="197" y2="197" class="net_2"/>
  <line x1="552" x2="552" y1="197" y2="43.5" class="net_2"/>
  <line x1="552" x2="597" y1="43.5" y2="43.5" class="net_2"/>
  <line x1="394.3333333333333" x2="597" y1="405" y2="405" class="net_22,23,24,25,26,27"/>
  <line x1="125" x2="135" y1="248" y2="248" class="net_66"/>
  <line x1="135" x2="135" y1="248" y2="482.5" class="net_66"/>
  <line x1="135" x2="542" y1="482.5" y2="482.5" class="net_66"/>
  <line x1="542" x2="542" y1="482.5" y2="425" class="net_66"/>
  <circle cx="135" cy="248" r="2" style="fill:#000" class="net_66"/>
  <line x1="542" x2="597" y1="425" y2="425" class="net_66"/>
  <line x1="125" x2="1163" y1="248" y2="248" class="net_66"/>
  <line x1="1163" x2="1163" y1="248" y2="237" class="net_66"/>
  <line x1="1163" x2="1213" y1="237" y2="237" class="net_66"/>
  <line x1="125" x2="135" y1="248" y2="248" class="net_66"/>
  <line x1="135" x2="135" y1="248" y2="119.5" class="net_66"/>
  <line x1="135" x2="195" y1="119.5" y2="119.5" class="net_66"/>
  <line x1="40" x2="552" y1="493.5" y2="493.5" class="net_4"/>
  <line x1="552" x2="552" y1="493.5" y2="445" class="net_4"/>
  <circle cx="552" cy="493.5" r="2" style="fill:#000" class="net_4"/>
  <line x1="552" x2="597" y1="445" y2="445" class="net_4"/>
  <line x1="40" x2="1163" y1="493.5" y2="493.5" class="net_4"/>
  <line x1="1163" x2="1163" y1="493.5" y2="257" class="net_4"/>
  <line x1="1163" x2="1213" y1="257" y2="257" class="net_4"/>
  <line x1="40" x2="70" y1="493.5" y2="493.5" class="net_4"/>
  <line x1="70" x2="70" y1="493.5" y2="139.5" class="net_4"/>
  <circle cx="70" cy="493.5" r="2" style="fill:#000" class="net_4"/>
  <line x1="70" x2="95" y1="139.5" y2="139.5" class="net_4"/>
  <line x1="1061" x2="1163" y1="228" y2="228" class="net_15,16,17,18,19,20"/>
  <line x1="1163" x2="1163" y1="228" y2="217" class="net_15,16,17,18,19,20"/>
  <line x1="1163" x2="1213" y1="217" y2="217" class="net_15,16,17,18,19,20"/>
  <line x1="334" x2="597" y1="63.5" y2="63.5" class="net_34,35,36,37,38,39"/>
  <line x1="40" x2="562" y1="96" y2="96" class="net_3"/>
  <line x1="562" x2="562" y1="96" y2="83.5" class="net_3"/>
  <line x1="562" x2="597" y1="83.5" y2="83.5" class="net_3"/>
  <line x1="40" x2="80" y1="96" y2="96" class="net_3"/>
  <line x1="80" x2="80" y1="96" y2="240.5" class="net_3"/>
  <circle cx="80" cy="96" r="2" style="fill:#000" class="net_3"/>
  <line x1="80" x2="95" y1="240.5" y2="240.5" class="net_3"/>
  <line x1="335" x2="562" y1="129.5" y2="129.5" class="net_79"/>
  <line x1="562" x2="562" y1="129.5" y2="103.5" class="net_79"/>
  <line x1="562" x2="597" y1="103.5" y2="103.5" class="net_79"/>
  <line x1="201" x2="304" y1="129.5" y2="129.5" class="net_66,80"/>
  <line x1="1244" x2="1367" y1="197" y2="197" class="net_73,74,75,76,77,78"/>
  <line x1="1367" x2="1367" y1="197" y2="118.5" class="net_73,74,75,76,77,78"/>
  <line x1="1367" x2="1395" y1="118.5" y2="118.5" class="net_73,74,75,76,77,78"/>
  <line x1="628" x2="825.3333333333334" y1="385" y2="385" class="net_67,68,69,70,71,72"/>
  <line x1="628" x2="751" y1="385" y2="385" class="net_67,68,69,70,71,72"/>
  <line x1="751" x2="751" y1="385" y2="445.5" class="net_67,68,69,70,71,72"/>
  <circle cx="751" cy="385" r="2" style="fill:#000" class="net_67,68,69,70,71,72"/>
  <line x1="751" x2="783" y1="445.5" y2="445.5" class="net_67,68,69,70,71,72"/>
  <line x1="1417" x2="1456" y1="111" y2="111" class="net_81"/>
  <line x1="1456" x2="1456" y1="111" y2="504.5" class="net_81"/>
  <line x1="1456" x2="80" y1="504.5" y2="504.5" class="net_81"/>
  <line x1="80" x2="80" y1="504.5" y2="255.5" class="net_81"/>
  <line x1="80" x2="95" y1="255.5" y2="255.5" class="net_81"/>
  <line x1="847.3333333333334" x2="968" y1="377.5" y2="377.5" class="net_82"/>
  <line x1="814" x2="943" y1="445.5" y2="445.5" class="net_83"/>
  <line x1="943" x2="943" y1="445.5" y2="392.5" class="net_83"/>
  <line x1="943" x2="968" y1="392.5" y2="392.5" class="net_83"/>
  <line x1="998" x2="1066.3333333333333" y1="327.5" y2="327.5" class="net_148,149,150,151,152,153,154,155,156,157,158,159,160,161,162,163,164,165,166,167,168,169,170,171,172,173,174,175,176,177,178,179"/>
  <line x1="998" x2="1076.3333333333333" y1="385" y2="385" class="net_84"/>
  <line x1="1076.3333333333333" x2="1076.3333333333333" y1="385" y2="352.5" class="net_84"/>
  <line x1="1243" x2="1392" y1="315" y2="315" class="net_21"/>
  <line x1="120" x2="195" y1="139.5" y2="139.5" class="net_80"/>
  <line x1="1417" x2="1456" y1="51" y2="51" class="net_34,35,36,37,38,39,40,41,42,43,44,45,46,47,48,49,50,51,52,53,54,55,56,57,58,59,60,61,62,63,64,65"/>
  <line x1="1456" x2="1456" y1="51" y2="12" class="net_34,35,36,37,38,39,40,41,42,43,44,45,46,47,48,49,50,51,52,53,54,55,56,57,58,59,60,61,62,63,64,65"/>
  <line x1="1456" x2="542" y1="12" y2="12" class="net_34,35,36,37,38,39,40,41,42,43,44,45,46,47,48,49,50,51,52,53,54,55,56,57,58,59,60,61,62,63,64,65"/>
  <line x1="542" x2="542" y1="12" y2="86" class="net_34,35,36,37,38,39,40,41,42,43,44,45,46,47,48,49,50,51,52,53,54,55,56,57,58,59,60,61,62,63,64,65"/>
  <line x1="542" x2="329.5" y1="86" y2="86" class="net_34,35,36,37,38,39,40,41,42,43,44,45,46,47,48,49,50,51,52,53,54,55,56,57,58,59,60,61,62,63,64,65"/>
  <line x1="329.5" x2="329.5" y1="86" y2="74" class="net_34,35,36,37,38,39,40,41,42,43,44,45,46,47,48,49,50,51,52,53,54,55,56,57,58,59,60,61,62,63,64,65"/>
  <line x1="1086.3333333333333" x2="1238.5" y1="337.5" y2="337.5" class="net_21,85,86,87,88,89,90,91,92,93,94,95,96,97,98,99,100,101,102,103,104,105,106,107,108,109,110,111,112,113,114,115"/>
  <line x1="1238.5" x2="1238.5" y1="337.5" y2="325.5" class="net_21,85,86,87,88,89,90,91,92,93,94,95,96,97,98,99,100,101,102,103,104,105,106,107,108,109,110,111,112,113,114,115"/>
</svg>
