<svg xmlns="http://www.w3.org/2000/svg" xmlns:xlink="http://www.w3.org/1999/xlink" xmlns:s="https://github.com/nturley/netlistsvg" width="2098" height="971.5">
  <style>svg {
    stroke:#000;
    fill:none;
  }
  text {
    fill:#000;
    stroke:none;
    font-size:10px;
    font-weight: bold;
    font-family: "Courier New", monospace;
  }
  .nodelabel {
    text-anchor: middle;
  }
  .inputPortLabel {
    text-anchor: end;
  }
  .splitjoinBody {
    fill:#000;
  }</style>
  <g s:type="add" transform="translate(1881,934.5)" s:width="25" s:height="25" id="cell_$add$FanCTRL.v:120$113">
    <s:alias val="$add"/>
    <circle r="12.5" cx="12.5" cy="12.5" class="cell_$add$FanCTRL.v:120$113"/>
    <line x1="7.5" x2="17.5" y1="12.5" y2="12.5" class="cell_$add$FanCTRL.v:120$113"/>
    <line x1="12.5" x2="12.5" y1="7.5" y2="17.5" class="cell_$add$FanCTRL.v:120$113"/>
    <g s:x="3" s:y="5" s:pid="A"/>
    <g s:x="3" s:y="20" s:pid="B"/>
    <g s:x="25" s:y="12.5" s:pid="Y"/>
  </g>
  <g s:type="add" transform="translate(2022,55)" s:width="25" s:height="25" id="cell_$add$FanCTRL.v:85$103">
    <s:alias val="$add"/>
    <circle r="12.5" cx="12.5" cy="12.5" class="cell_$add$FanCTRL.v:85$103"/>
    <line x1="7.5" x2="17.5" y1="12.5" y2="12.5" class="cell_$add$FanCTRL.v:85$103"/>
    <line x1="12.5" x2="12.5" y1="7.5" y2="17.5" class="cell_$add$FanCTRL.v:85$103"/>
    <g s:x="3" s:y="5" s:pid="A"/>
    <g s:x="3" s:y="20" s:pid="B"/>
    <g s:x="25" s:y="12.5" s:pid="Y"/>
  </g>
  <g s:type="generic" transform="translate(539,623.5)" s:width="30" s:height="40" id="cell_$auto$ff.cc:266:slice$306">
    <text x="15" y="-4" class="nodelabel cell_$auto$ff.cc:266:slice$306" s:attribute="ref">$sdff</text>
    <rect width="30" height="60" s:generic="body" class="cell_$auto$ff.cc:266:slice$306"/>
    <g transform="translate(0,10)" s:x="0" s:y="10" s:pid="in0" id="port_$auto$ff.cc:266:slice$306~CLK">
      <text x="-3" y="-4" class="inputPortLabel cell_$auto$ff.cc:266:slice$306">CLK</text>
    </g>
    <g transform="translate(0,30)" s:x="0" s:y="10" s:pid="in0" id="port_$auto$ff.cc:266:slice$306~D">
      <text x="-3" y="-4" class="inputPortLabel cell_$auto$ff.cc:266:slice$306">D</text>
    </g>
    <g transform="translate(0,50)" s:x="0" s:y="10" s:pid="in0" id="port_$auto$ff.cc:266:slice$306~SRST">
      <text x="-3" y="-4" class="inputPortLabel cell_$auto$ff.cc:266:slice$306">SRST</text>
    </g>
    <g transform="translate(30,10)" s:x="30" s:y="10" s:pid="out0" id="port_$auto$ff.cc:266:slice$306~Q">
      <text x="5" y="-4" style="fill:#000; stroke:none" class="cell_$auto$ff.cc:266:slice$306">Q</text>
    </g>
  </g>
  <g s:type="generic" transform="translate(1590,863.5)" s:width="30" s:height="40" id="cell_$auto$ff.cc:266:slice$311">
    <text x="15" y="-4" class="nodelabel cell_$auto$ff.cc:266:slice$311" s:attribute="ref">$sdff</text>
    <rect width="30" height="60" s:generic="body" class="cell_$auto$ff.cc:266:slice$311"/>
    <g transform="translate(0,10)" s:x="0" s:y="10" s:pid="in0" id="port_$auto$ff.cc:266:slice$311~CLK">
      <text x="-3" y="-4" class="inputPortLabel cell_$auto$ff.cc:266:slice$311">CLK</text>
    </g>
    <g transform="translate(0,30)" s:x="0" s:y="10" s:pid="in0" id="port_$auto$ff.cc:266:slice$311~D">
      <text x="-3" y="-4" class="inputPortLabel cell_$auto$ff.cc:266:slice$311">D</text>
    </g>
    <g transform="translate(0,50)" s:x="0" s:y="10" s:pid="in0" id="port_$auto$ff.cc:266:slice$311~SRST">
      <text x="-3" y="-4" class="inputPortLabel cell_$auto$ff.cc:266:slice$311">SRST</text>
    </g>
    <g transform="translate(30,10)" s:x="30" s:y="10" s:pid="out0" id="port_$auto$ff.cc:266:slice$311~Q">
      <text x="5" y="-4" style="fill:#000; stroke:none" class="cell_$auto$ff.cc:266:slice$311">Q</text>
    </g>
  </g>
  <g s:type="not" transform="translate(125,654)" s:width="30" s:height="20" id="cell_$auto$opt_dff.cc:250:combine_resets$307">
    <s:alias val="$_NOT_"/>
    <s:alias val="$not"/>
    <s:alias val="$logic_not"/>
    <path d="M0,0 L0,20 L20,10 Z" class="cell_$auto$opt_dff.cc:250:combine_resets$307"/>
    <circle cx="23" cy="10" r="3" class="cell_$auto$opt_dff.cc:250:combine_resets$307"/>
    <g s:x="0" s:y="10" s:pid="A"/>
    <g s:x="25" s:y="10" s:pid="Y"/>
  </g>
  <g s:type="generic" transform="translate(245,663.5)" s:width="30" s:height="40" id="cell_$auto$opt_dff.cc:254:combine_resets$310">
    <text x="15" y="-4" class="nodelabel cell_$auto$opt_dff.cc:254:combine_resets$310" s:attribute="ref">$reduce_or</text>
    <rect width="30" height="20" s:generic="body" class="cell_$auto$opt_dff.cc:254:combine_resets$310"/>
    <g transform="translate(0,10)" s:x="0" s:y="10" s:pid="in0" id="port_$auto$opt_dff.cc:254:combine_resets$310~A">
      <text x="-3" y="-4" class="inputPortLabel cell_$auto$opt_dff.cc:254:combine_resets$310">A</text>
    </g>
    <g transform="translate(30,10)" s:x="30" s:y="10" s:pid="out0" id="port_$auto$opt_dff.cc:254:combine_resets$310~Y">
      <text x="5" y="-4" style="fill:#000; stroke:none" class="cell_$auto$opt_dff.cc:254:combine_resets$310">Y</text>
    </g>
  </g>
  <g s:type="generic" transform="translate(1296,903.5)" s:width="30" s:height="40" id="cell_$auto$opt_dff.cc:254:combine_resets$315">
    <text x="15" y="-4" class="nodelabel cell_$auto$opt_dff.cc:254:combine_resets$315" s:attribute="ref">$reduce_or</text>
    <rect width="30" height="20" s:generic="body" class="cell_$auto$opt_dff.cc:254:combine_resets$315"/>
    <g transform="translate(0,10)" s:x="0" s:y="10" s:pid="in0" id="port_$auto$opt_dff.cc:254:combine_resets$315~A">
      <text x="-3" y="-4" class="inputPortLabel cell_$auto$opt_dff.cc:254:combine_resets$315">A</text>
    </g>
    <g transform="translate(30,10)" s:x="30" s:y="10" s:pid="out0" id="port_$auto$opt_dff.cc:254:combine_resets$315~Y">
      <text x="5" y="-4" style="fill:#000; stroke:none" class="cell_$auto$opt_dff.cc:254:combine_resets$315">Y</text>
    </g>
  </g>
  <g s:type="eq" transform="translate(1169,839)" s:width="25" s:height="25" id="cell_$eq$FanCTRL.v:117$112">
    <s:alias val="$eq"/>
    <circle r="12.5" cx="12.5" cy="12.5" class="cell_$eq$FanCTRL.v:117$112"/>
    <line x1="7.5" x2="17.5" y1="10" y2="10" class="cell_$eq$FanCTRL.v:117$112"/>
    <line x1="7.5" x2="17.5" y1="15" y2="15" class="cell_$eq$FanCTRL.v:117$112"/>
    <g s:x="3" s:y="5" s:pid="A"/>
    <g s:x="3" s:y="20" s:pid="B"/>
    <g s:x="25" s:y="12.5" s:pid="Y"/>
  </g>
  <g s:type="eq" transform="translate(725.25,772.5)" s:width="25" s:height="25" id="cell_$eq$FanCTRL.v:82$102">
    <s:alias val="$eq"/>
    <circle r="12.5" cx="12.5" cy="12.5" class="cell_$eq$FanCTRL.v:82$102"/>
    <line x1="7.5" x2="17.5" y1="10" y2="10" class="cell_$eq$FanCTRL.v:82$102"/>
    <line x1="7.5" x2="17.5" y1="15" y2="15" class="cell_$eq$FanCTRL.v:82$102"/>
    <g s:x="3" s:y="5" s:pid="A"/>
    <g s:x="3" s:y="20" s:pid="B"/>
    <g s:x="25" s:y="12.5" s:pid="Y"/>
  </g>
  <g s:type="sub" transform="translate(1229,207.5)" s:width="25" s:height="25" id="cell_$sub$FanCTRL.v:100$107">
    <s:alias val="$sub"/>
    <circle r="12.5" cx="12.5" cy="12.5" class="cell_$sub$FanCTRL.v:100$107"/>
    <line x1="7.5" x2="17.5" y1="12.5" y2="12.5" class="cell_$sub$FanCTRL.v:100$107"/>
    <g s:x="3" s:y="5" s:pid="A"/>
    <g s:x="3" s:y="20" s:pid="B"/>
    <g s:x="25" s:y="12.5" s:pid="Y"/>
  </g>
  <g s:type="mux" transform="translate(1365,190)" s:width="20" s:height="40" id="cell_$ternary$FanCTRL.v:100$109">
    <s:alias val="$pmux"/>
    <s:alias val="$mux"/>
    <s:alias val="$_MUX_"/>
    <path d="M0,0 L20,10 L20,30 L0,40 Z" class="cell_$ternary$FanCTRL.v:100$109"/>
    <g s:x="0" s:y="10" s:pid="A"/>
    <g s:x="0" s:y="30" s:pid="B"/>
    <g s:x="10" s:y="35" s:pid="S"/>
    <g s:x="20" s:y="20" s:pid="Y"/>
  </g>
  <g s:type="mux" transform="translate(794,691.5)" s:width="20" s:height="40" id="cell_$ternary$FanCTRL.v:57$99">
    <s:alias val="$pmux"/>
    <s:alias val="$mux"/>
    <s:alias val="$_MUX_"/>
    <path d="M0,0 L20,10 L20,30 L0,40 Z" class="cell_$ternary$FanCTRL.v:57$99"/>
    <g s:x="0" s:y="10" s:pid="A"/>
    <g s:x="0" s:y="30" s:pid="B"/>
    <g s:x="10" s:y="35" s:pid="S"/>
    <g s:x="20" s:y="20" s:pid="Y"/>
  </g>
  <g s:type="mux" transform="translate(1365,130)" s:width="20" s:height="40" id="cell_$ternary$FanCTRL.v:99$105">
    <s:alias val="$pmux"/>
    <s:alias val="$mux"/>
    <s:alias val="$_MUX_"/>
    <path d="M0,0 L20,10 L20,30 L0,40 Z" class="cell_$ternary$FanCTRL.v:99$105"/>
    <g s:x="0" s:y="10" s:pid="A"/>
    <g s:x="0" s:y="30" s:pid="B"/>
    <g s:x="10" s:y="35" s:pid="S"/>
    <g s:x="20" s:y="20" s:pid="Y"/>
  </g>
  <g s:type="generic" transform="translate(1048,458)" s:width="30" s:height="40" id="cell_PID">
    <text x="15" y="-4" class="nodelabel cell_PID" s:attribute="ref">PID_core</text>
    <rect width="30" height="200" s:generic="body" class="cell_PID"/>
    <g transform="translate(0,10)" s:x="0" s:y="10" s:pid="in0" id="port_PID~ADC_value_i">
      <text x="-3" y="-4" class="inputPortLabel cell_PID">ADC_value_i</text>
    </g>
    <g transform="translate(0,30)" s:x="0" s:y="10" s:pid="in0" id="port_PID~SET_value_i">
      <text x="-3" y="-4" class="inputPortLabel cell_PID">SET_value_i</text>
    </g>
    <g transform="translate(0,50)" s:x="0" s:y="10" s:pid="in0" id="port_PID~a0_reg_i">
      <text x="-3" y="-4" class="inputPortLabel cell_PID">a0_reg_i</text>
    </g>
    <g transform="translate(0,70)" s:x="0" s:y="10" s:pid="in0" id="port_PID~a1_reg_i">
      <text x="-3" y="-4" class="inputPortLabel cell_PID">a1_reg_i</text>
    </g>
    <g transform="translate(0,90)" s:x="0" s:y="10" s:pid="in0" id="port_PID~b0_reg_i">
      <text x="-3" y="-4" class="inputPortLabel cell_PID">b0_reg_i</text>
    </g>
    <g transform="translate(0,110)" s:x="0" s:y="10" s:pid="in0" id="port_PID~b1_reg_i">
      <text x="-3" y="-4" class="inputPortLabel cell_PID">b1_reg_i</text>
    </g>
    <g transform="translate(0,130)" s:x="0" s:y="10" s:pid="in0" id="port_PID~b2_reg_i">
      <text x="-3" y="-4" class="inputPortLabel cell_PID">b2_reg_i</text>
    </g>
    <g transform="translate(0,150)" s:x="0" s:y="10" s:pid="in0" id="port_PID~clk_en_PID_i">
      <text x="-3" y="-4" class="inputPortLabel cell_PID">clk_en_PID_i</text>
    </g>
    <g transform="translate(0,170)" s:x="0" s:y="10" s:pid="in0" id="port_PID~clk_i">
      <text x="-3" y="-4" class="inputPortLabel cell_PID">clk_i</text>
    </g>
    <g transform="translate(0,190)" s:x="0" s:y="10" s:pid="in0" id="port_PID~rstn_i">
      <text x="-3" y="-4" class="inputPortLabel cell_PID">rstn_i</text>
    </g>
    <g transform="translate(30,10)" s:x="30" s:y="10" s:pid="out0" id="port_PID~out_Val_o">
      <text x="5" y="-4" style="fill:#000; stroke:none" class="cell_PID">out_Val_o</text>
    </g>
  </g>
  <g s:type="generic" transform="translate(1901,657)" s:width="30" s:height="40" id="cell_PWM">
    <text x="15" y="-4" class="nodelabel cell_PWM" s:attribute="ref">PWM_controller</text>
    <rect width="30" height="120" s:generic="body" class="cell_PWM"/>
    <g transform="translate(0,10)" s:x="0" s:y="10" s:pid="in0" id="port_PWM~clk_en_i">
      <text x="-3" y="-4" class="inputPortLabel cell_PWM">clk_en_i</text>
    </g>
    <g transform="translate(0,30)" s:x="0" s:y="10" s:pid="in0" id="port_PWM~clk_i">
      <text x="-3" y="-4" class="inputPortLabel cell_PWM">clk_i</text>
    </g>
    <g transform="translate(0,50)" s:x="0" s:y="10" s:pid="in0" id="port_PWM~counterValue_i">
      <text x="-3" y="-4" class="inputPortLabel cell_PWM">counterValue_i</text>
    </g>
    <g transform="translate(0,70)" s:x="0" s:y="10" s:pid="in0" id="port_PWM~minCounterValue_i">
      <text x="-3" y="-4" class="inputPortLabel cell_PWM">minCounterValue_i</text>
    </g>
    <g transform="translate(0,90)" s:x="0" s:y="10" s:pid="in0" id="port_PWM~periodCounterValue_i">
      <text x="-3" y="-4" class="inputPortLabel cell_PWM">periodCounterValue_i</text>
    </g>
    <g transform="translate(0,110)" s:x="0" s:y="10" s:pid="in0" id="port_PWM~rstn_i">
      <text x="-3" y="-4" class="inputPortLabel cell_PWM">rstn_i</text>
    </g>
    <g transform="translate(30,10)" s:x="30" s:y="10" s:pid="out0" id="port_PWM~PWM_pin_o">
      <text x="5" y="-4" style="fill:#000; stroke:none" class="cell_PWM">PWM_pin_o</text>
    </g>
  </g>
  <g s:type="inputExt" transform="translate(245,731.5)" s:width="30" s:height="20" id="cell_clk_i">
    <text x="15" y="-4" class="nodelabel cell_clk_i" s:attribute="ref">clk_i</text>
    <s:alias val="$_inputExt_"/>
    <path d="M0,0 L0,20 L15,20 L30,10 L15,0 Z" class="cell_clk_i"/>
    <g s:x="28" s:y="10" s:pid="Y"/>
  </g>
  <g s:type="inputExt" transform="translate(54,802.5)" s:width="30" s:height="20" id="cell_rstn_i">
    <text x="15" y="-4" class="nodelabel cell_rstn_i" s:attribute="ref">rstn_i</text>
    <s:alias val="$_inputExt_"/>
    <path d="M0,0 L0,20 L15,20 L30,10 L15,0 Z" class="cell_rstn_i"/>
    <g s:x="28" s:y="10" s:pid="Y"/>
  </g>
  <g s:type="inputExt" transform="translate(849,233.5)" s:width="30" s:height="20" id="cell_ADC_value_i">
    <text x="15" y="-4" class="nodelabel cell_ADC_value_i" s:attribute="ref">ADC_value_i</text>
    <s:alias val="$_inputExt_"/>
    <path d="M0,0 L0,20 L15,20 L30,10 L15,0 Z" class="cell_ADC_value_i"/>
    <g s:x="28" s:y="10" s:pid="Y"/>
  </g>
  <g s:type="inputExt" transform="translate(849,298.5)" s:width="30" s:height="20" id="cell_SET_value_i">
    <text x="15" y="-4" class="nodelabel cell_SET_value_i" s:attribute="ref">SET_value_i</text>
    <s:alias val="$_inputExt_"/>
    <path d="M0,0 L0,20 L15,20 L30,10 L15,0 Z" class="cell_SET_value_i"/>
    <g s:x="28" s:y="10" s:pid="Y"/>
  </g>
  <g s:type="inputExt" transform="translate(1590,782.5)" s:width="30" s:height="20" id="cell_PWM_periodCounterValue_i">
    <text x="15" y="-4" class="nodelabel cell_PWM_periodCounterValue_i" s:attribute="ref">PWM_periodCounterValue_i</text>
    <s:alias val="$_inputExt_"/>
    <path d="M0,0 L0,20 L15,20 L30,10 L15,0 Z" class="cell_PWM_periodCounterValue_i"/>
    <g s:x="28" s:y="10" s:pid="Y"/>
  </g>
  <g s:type="inputExt" transform="translate(1590,717.5)" s:width="30" s:height="20" id="cell_PWM_minCounterValue_i">
    <text x="15" y="-4" class="nodelabel cell_PWM_minCounterValue_i" s:attribute="ref">PWM_minCounterValue_i</text>
    <s:alias val="$_inputExt_"/>
    <path d="M0,0 L0,20 L15,20 L30,10 L15,0 Z" class="cell_PWM_minCounterValue_i"/>
    <g s:x="28" s:y="10" s:pid="Y"/>
  </g>
  <g s:type="inputExt" transform="translate(849,363.5)" s:width="30" s:height="20" id="cell_a0_i">
    <text x="15" y="-4" class="nodelabel cell_a0_i" s:attribute="ref">a0_i</text>
    <s:alias val="$_inputExt_"/>
    <path d="M0,0 L0,20 L15,20 L30,10 L15,0 Z" class="cell_a0_i"/>
    <g s:x="28" s:y="10" s:pid="Y"/>
  </g>
  <g s:type="inputExt" transform="translate(849,428.5)" s:width="30" s:height="20" id="cell_a1_i">
    <text x="15" y="-4" class="nodelabel cell_a1_i" s:attribute="ref">a1_i</text>
    <s:alias val="$_inputExt_"/>
    <path d="M0,0 L0,20 L15,20 L30,10 L15,0 Z" class="cell_a1_i"/>
    <g s:x="28" s:y="10" s:pid="Y"/>
  </g>
  <g s:type="inputExt" transform="translate(849,493.5)" s:width="30" s:height="20" id="cell_b0_i">
    <text x="15" y="-4" class="nodelabel cell_b0_i" s:attribute="ref">b0_i</text>
    <s:alias val="$_inputExt_"/>
    <path d="M0,0 L0,20 L15,20 L30,10 L15,0 Z" class="cell_b0_i"/>
    <g s:x="28" s:y="10" s:pid="Y"/>
  </g>
  <g s:type="inputExt" transform="translate(849,558.5)" s:width="30" s:height="20" id="cell_b1_i">
    <text x="15" y="-4" class="nodelabel cell_b1_i" s:attribute="ref">b1_i</text>
    <s:alias val="$_inputExt_"/>
    <path d="M0,0 L0,20 L15,20 L30,10 L15,0 Z" class="cell_b1_i"/>
    <g s:x="28" s:y="10" s:pid="Y"/>
  </g>
  <g s:type="inputExt" transform="translate(849,623.5)" s:width="30" s:height="20" id="cell_b2_i">
    <text x="15" y="-4" class="nodelabel cell_b2_i" s:attribute="ref">b2_i</text>
    <s:alias val="$_inputExt_"/>
    <path d="M0,0 L0,20 L15,20 L30,10 L15,0 Z" class="cell_b2_i"/>
    <g s:x="28" s:y="10" s:pid="Y"/>
  </g>
  <g s:type="outputExt" transform="translate(2022,657.5)" s:width="30" s:height="20" id="cell_PWM_pin_o">
    <text x="15" y="-4" class="nodelabel cell_PWM_pin_o" s:attribute="ref">PWM_pin_o</text>
    <s:alias val="$_outputExt_"/>
    <path d="M30,0 L30,20 L15,20 L0,10 L15,0 Z" class="cell_PWM_pin_o"/>
    <g s:x="0" s:y="10" s:pid="A"/>
  </g>
  <g s:type="outputExt" transform="translate(2022,813.5)" s:width="30" s:height="20" id="cell_PID_Val_o">
    <text x="15" y="-4" class="nodelabel cell_PID_Val_o" s:attribute="ref">PID_Val_o</text>
    <s:alias val="$_outputExt_"/>
    <path d="M30,0 L30,20 L15,20 L0,10 L15,0 Z" class="cell_PID_Val_o"/>
    <g s:x="0" s:y="10" s:pid="A"/>
  </g>
  <g s:type="constant" transform="translate(724,711.5)" s:width="30" s:height="20" id="cell_00000000000000000000000000000001">
    <text x="15" y="-4" class="nodelabel cell_00000000000000000000000000000001" s:attribute="ref">0x1</text>
    <s:alias val="$_constant_"/>
    <rect width="30" height="20" class="cell_00000000000000000000000000000001"/>
    <g s:x="30" s:y="10" s:pid="Y"/>
  </g>
  <g s:type="constant" transform="translate(12,22)" s:width="30" s:height="20" id="cell_0">
    <text x="15" y="-4" class="nodelabel cell_0" s:attribute="ref">0</text>
    <s:alias val="$_constant_"/>
    <rect width="30" height="20" class="cell_0"/>
    <g s:x="30" s:y="10" s:pid="Y"/>
  </g>
  <g s:type="constant" transform="translate(539,782.5)" s:width="30" s:height="20" id="cell_110000110100111111">
    <text x="15" y="-4" class="nodelabel cell_110000110100111111" s:attribute="ref">0x30d3f</text>
    <s:alias val="$_constant_"/>
    <rect width="30" height="20" class="cell_110000110100111111"/>
    <g s:x="30" s:y="10" s:pid="Y"/>
  </g>
  <g s:type="constant" transform="translate(724,202.5)" s:width="30" s:height="20" id="cell_00000000000000000000000000000000">
    <text x="15" y="-4" class="nodelabel cell_00000000000000000000000000000000" s:attribute="ref">0x0</text>
    <s:alias val="$_constant_"/>
    <rect width="30" height="20" class="cell_00000000000000000000000000000000"/>
    <g s:x="30" s:y="10" s:pid="Y"/>
  </g>
  <g s:type="join" transform="translate(197,653.5)" s:width="4" s:height="40" id="cell_$join$,293,294,">
    <rect width="5" height="40" class="splitjoinBody" s:generic="body"/>
    <s:alias val="$_join_"/>
    <g s:x="5" s:y="20" s:pid="out"/>
    <g transform="translate(0,10)" s:x="0" s:y="10" s:pid="in0">
      <text x="-3" y="-4" class="inputPortLabel">0</text>
    </g>
    <g transform="translate(0,30)" s:x="0" s:y="10" s:pid="in0">
      <text x="-3" y="-4" class="inputPortLabel">1</text>
    </g>
  </g>
  <g s:type="join" transform="translate(1238.3333333333333,893.5)" s:width="4" s:height="40" id="cell_$join$,293,295,">
    <rect width="5" height="40" class="splitjoinBody" s:generic="body"/>
    <s:alias val="$_join_"/>
    <g s:x="5" s:y="20" s:pid="out"/>
    <g transform="translate(0,10)" s:x="0" s:y="10" s:pid="in0">
      <text x="-3" y="-4" class="inputPortLabel">0</text>
    </g>
    <g transform="translate(0,30)" s:x="0" s:y="10" s:pid="in0">
      <text x="-3" y="-4" class="inputPortLabel">1</text>
    </g>
  </g>
  <g s:type="split" transform="translate(270,12)" s:width="5" s:height="40" id="cell_$split$,259,260,261,262,263,264,265,266,267,268,269,270,271,272,273,274,275,276,277,278,279,280,281,282,283,284,285,286,287,288,289,290,">
    <rect width="5" height="20" class="splitjoinBody" s:generic="body"/>
    <s:alias val="$_split_"/>
    <g s:x="0" s:y="20" s:pid="in"/>
    <g transform="translate(4,10)" s:x="4" s:y="10" s:pid="out0">
      <text x="5" y="-4">0:17</text>
    </g>
  </g>
  <g s:type="split" transform="translate(2022,853.5)" s:width="5" s:height="40" id="cell_$split$,209,210,211,212,213,214,215,216,217,218,219,220,221,222,223,224,225,226,227,228,229,230,231,232,233,234,235,236,237,238,239,240,">
    <rect width="5" height="20" class="splitjoinBody" s:generic="body"/>
    <s:alias val="$_split_"/>
    <g s:x="0" s:y="20" s:pid="in"/>
    <g transform="translate(4,10)" s:x="4" s:y="10" s:pid="out0">
      <text x="5" y="-4">0:1</text>
    </g>
  </g>
  <g s:type="split" transform="translate(1170,448)" s:width="5" s:height="40" id="cell_$split$,198,199,200,201,202,203,204,205,206,">
    <rect width="5" height="40" class="splitjoinBody" s:generic="body"/>
    <s:alias val="$_split_"/>
    <g s:x="0" s:y="20" s:pid="in"/>
    <g transform="translate(4,10)" s:x="4" s:y="10" s:pid="out0">
      <text x="5" y="-4">0:7</text>
    </g>
    <g transform="translate(4,30)" s:x="4" s:y="10" s:pid="out0">
      <text x="5" y="-4">8</text>
    </g>
  </g>
  <g s:type="split" transform="translate(874,678.5)" s:width="5" s:height="40" id="cell_$split$,360,361,362,363,364,365,366,367,368,369,370,371,372,373,374,375,376,377,378,379,380,381,382,383,384,385,386,387,388,389,390,391,">
    <rect width="5" height="20" class="splitjoinBody" s:generic="body"/>
    <s:alias val="$_split_"/>
    <g s:x="0" s:y="20" s:pid="in"/>
    <g transform="translate(4,10)" s:x="4" s:y="10" s:pid="out0">
      <text x="5" y="-4">0</text>
    </g>
  </g>
  <g s:type="split" transform="translate(1615,86)" s:width="5" s:height="40" id="cell_$split$,392,393,394,395,396,397,398,399,400,401,402,403,404,405,406,407,408,409,410,411,412,413,414,415,416,417,418,419,420,421,422,423,">
    <rect width="5" height="20" class="splitjoinBody" s:generic="body"/>
    <s:alias val="$_split_"/>
    <g s:x="0" s:y="20" s:pid="in"/>
    <g transform="translate(4,10)" s:x="4" s:y="10" s:pid="out0">
      <text x="5" y="-4">0</text>
    </g>
  </g>
  <g s:type="split" transform="translate(1615,177)" s:width="5" s:height="40" id="cell_$split$,328,329,330,331,332,333,334,335,336,337,338,339,340,341,342,343,344,345,346,347,348,349,350,351,352,353,354,355,356,357,358,359,">
    <rect width="5" height="20" class="splitjoinBody" s:generic="body"/>
    <s:alias val="$_split_"/>
    <g s:x="0" s:y="20" s:pid="in"/>
    <g transform="translate(4,10)" s:x="4" s:y="10" s:pid="out0">
      <text x="5" y="-4">0:7</text>
    </g>
  </g>
  <line x1="1621" x2="1750" y1="874" y2="874" class="net_207,208"/>
  <line x1="1750" x2="1750" y1="874" y2="939.5" class="net_207,208"/>
  <circle cx="1750" cy="939.5" r="2" style="fill:#000" class="net_207,208"/>
  <line x1="1750" x2="1884" y1="939.5" y2="939.5" class="net_207,208"/>
  <line x1="1621" x2="1750" y1="874" y2="874" class="net_207,208"/>
  <line x1="1750" x2="1750" y1="874" y2="943.5" class="net_207,208"/>
  <line x1="1750" x2="1144" y1="943.5" y2="943.5" class="net_207,208"/>
  <line x1="1144" x2="1144" y1="943.5" y2="844" class="net_207,208"/>
  <line x1="1144" x2="1172" y1="844" y2="844" class="net_207,208"/>
  <line x1="754" x2="774" y1="721.5" y2="721.5" class="net_424,425,426,427,428,429,430,431,432,433,434,435,436,437,438,439,440,441,442,443,444,445,446,447,448,449,450,451,452,453,454,455"/>
  <line x1="774" x2="774" y1="721.5" y2="954.5" class="net_424,425,426,427,428,429,430,431,432,433,434,435,436,437,438,439,440,441,442,443,444,445,446,447,448,449,450,451,452,453,454,455"/>
  <circle cx="774" cy="721.5" r="2" style="fill:#000" class="net_424,425,426,427,428,429,430,431,432,433,434,435,436,437,438,439,440,441,442,443,444,445,446,447,448,449,450,451,452,453,454,455"/>
  <line x1="774" x2="1884" y1="954.5" y2="954.5" class="net_424,425,426,427,428,429,430,431,432,433,434,435,436,437,438,439,440,441,442,443,444,445,446,447,448,449,450,451,452,453,454,455"/>
  <line x1="754" x2="774" y1="721.5" y2="721.5" class="net_424,425,426,427,428,429,430,431,432,433,434,435,436,437,438,439,440,441,442,443,444,445,446,447,448,449,450,451,452,453,454,455"/>
  <line x1="774" x2="774" y1="721.5" y2="75" class="net_424,425,426,427,428,429,430,431,432,433,434,435,436,437,438,439,440,441,442,443,444,445,446,447,448,449,450,451,452,453,454,455"/>
  <line x1="774" x2="2025" y1="75" y2="75" class="net_424,425,426,427,428,429,430,431,432,433,434,435,436,437,438,439,440,441,442,443,444,445,446,447,448,449,450,451,452,453,454,455"/>
  <line x1="754" x2="794" y1="721.5" y2="721.5" class="net_424,425,426,427,428,429,430,431,432,433,434,435,436,437,438,439,440,441,442,443,444,445,446,447,448,449,450,451,452,453,454,455"/>
  <line x1="754" x2="774" y1="721.5" y2="721.5" class="net_424,425,426,427,428,429,430,431,432,433,434,435,436,437,438,439,440,441,442,443,444,445,446,447,448,449,450,451,452,453,454,455"/>
  <line x1="774" x2="774" y1="721.5" y2="160" class="net_424,425,426,427,428,429,430,431,432,433,434,435,436,437,438,439,440,441,442,443,444,445,446,447,448,449,450,451,452,453,454,455"/>
  <circle cx="774" cy="160" r="2" style="fill:#000" class="net_424,425,426,427,428,429,430,431,432,433,434,435,436,437,438,439,440,441,442,443,444,445,446,447,448,449,450,451,452,453,454,455"/>
  <line x1="774" x2="1365" y1="160" y2="160" class="net_424,425,426,427,428,429,430,431,432,433,434,435,436,437,438,439,440,441,442,443,444,445,446,447,448,449,450,451,452,453,454,455"/>
  <line x1="570" x2="699" y1="634" y2="634" class="net_241,242,243,244,245,246,247,248,249,250,251,252,253,254,255,256,257,258"/>
  <line x1="699" x2="699" y1="634" y2="64" class="net_241,242,243,244,245,246,247,248,249,250,251,252,253,254,255,256,257,258"/>
  <line x1="699" x2="1997" y1="64" y2="64" class="net_241,242,243,244,245,246,247,248,249,250,251,252,253,254,255,256,257,258"/>
  <line x1="1997" x2="1997" y1="64" y2="60" class="net_241,242,243,244,245,246,247,248,249,250,251,252,253,254,255,256,257,258"/>
  <circle cx="699" cy="634" r="2" style="fill:#000" class="net_241,242,243,244,245,246,247,248,249,250,251,252,253,254,255,256,257,258"/>
  <line x1="1997" x2="2025" y1="60" y2="60" class="net_241,242,243,244,245,246,247,248,249,250,251,252,253,254,255,256,257,258"/>
  <line x1="570" x2="699" y1="634" y2="634" class="net_241,242,243,244,245,246,247,248,249,250,251,252,253,254,255,256,257,258"/>
  <line x1="699" x2="699" y1="634" y2="777.5" class="net_241,242,243,244,245,246,247,248,249,250,251,252,253,254,255,256,257,258"/>
  <line x1="699" x2="728.25" y1="777.5" y2="777.5" class="net_241,242,243,244,245,246,247,248,249,250,251,252,253,254,255,256,257,258"/>
  <line x1="273" x2="499" y1="741.5" y2="741.5" class="net_2"/>
  <line x1="499" x2="499" y1="741.5" y2="634" class="net_2"/>
  <circle cx="499" cy="741.5" r="2" style="fill:#000" class="net_2"/>
  <circle cx="499" cy="634" r="2" style="fill:#000" class="net_2"/>
  <line x1="499" x2="539" y1="634" y2="634" class="net_2"/>
  <line x1="273" x2="499" y1="741.5" y2="741.5" class="net_2"/>
  <line x1="499" x2="499" y1="741.5" y2="874" class="net_2"/>
  <line x1="499" x2="1590" y1="874" y2="874" class="net_2"/>
  <line x1="273" x2="945" y1="741.5" y2="741.5" class="net_2"/>
  <line x1="945" x2="945" y1="741.5" y2="628.5" class="net_2"/>
  <line x1="945" x2="1048" y1="628.5" y2="628.5" class="net_2"/>
  <line x1="273" x2="499" y1="741.5" y2="741.5" class="net_2"/>
  <line x1="499" x2="499" y1="741.5" y2="119" class="net_2"/>
  <line x1="499" x2="1760" y1="119" y2="119" class="net_2"/>
  <line x1="1760" x2="1760" y1="119" y2="687.5" class="net_2"/>
  <line x1="1760" x2="1901" y1="687.5" y2="687.5" class="net_2"/>
  <line x1="275" x2="489" y1="22.5" y2="22.5" class="net_259,260,261,262,263,264,265,266,267,268,269,270,271,272,273,274,275,276"/>
  <line x1="489" x2="489" y1="22.5" y2="654" class="net_259,260,261,262,263,264,265,266,267,268,269,270,271,272,273,274,275,276"/>
  <line x1="489" x2="539" y1="654" y2="654" class="net_259,260,261,262,263,264,265,266,267,268,269,270,271,272,273,274,275,276"/>
  <line x1="276" x2="539" y1="674" y2="674" class="net_291"/>
  <line x1="2027" x2="2086" y1="864" y2="864" class="net_209,210"/>
  <line x1="2086" x2="2086" y1="864" y2="843.5" class="net_209,210"/>
  <line x1="2086" x2="1540" y1="843.5" y2="843.5" class="net_209,210"/>
  <line x1="1540" x2="1540" y1="843.5" y2="894" class="net_209,210"/>
  <line x1="1540" x2="1590" y1="894" y2="894" class="net_209,210"/>
  <line x1="1327" x2="1590" y1="914" y2="914" class="net_292"/>
  <line x1="82" x2="100" y1="812.5" y2="812.5" class="net_3"/>
  <line x1="100" x2="100" y1="812.5" y2="664" class="net_3"/>
  <circle cx="100" cy="812.5" r="2" style="fill:#000" class="net_3"/>
  <line x1="100" x2="125" y1="664" y2="664" class="net_3"/>
  <line x1="82" x2="955" y1="812.5" y2="812.5" class="net_3"/>
  <line x1="955" x2="955" y1="812.5" y2="648.5" class="net_3"/>
  <circle cx="955" cy="812.5" r="2" style="fill:#000" class="net_3"/>
  <line x1="955" x2="1048" y1="648.5" y2="648.5" class="net_3"/>
  <line x1="82" x2="1760" y1="812.5" y2="812.5" class="net_3"/>
  <line x1="1760" x2="1760" y1="812.5" y2="767.5" class="net_3"/>
  <line x1="1760" x2="1901" y1="767.5" y2="767.5" class="net_3"/>
  <line x1="203" x2="245" y1="674" y2="674" class="net_293,294"/>
  <line x1="1244.3333333333333" x2="1296" y1="914" y2="914" class="net_293,295"/>
  <line x1="569" x2="728.25" y1="792.5" y2="792.5" class="net_489,490,491,492,493,494,495,496,497,498,499,500,501,502,503,504,505,506"/>
  <line x1="754" x2="1232" y1="212.5" y2="212.5" class="net_507,508,509,510,511,512,513,514,515,516,517,518,519,520,521,522,523,524,525,526,527,528,529,530,531,532,533,534,535,536,537,538"/>
  <line x1="754" x2="1214" y1="212.5" y2="212.5" class="net_507,508,509,510,511,512,513,514,515,516,517,518,519,520,521,522,523,524,525,526,527,528,529,530,531,532,533,534,535,536,537,538"/>
  <line x1="1214" x2="1214" y1="212.5" y2="196.5" class="net_507,508,509,510,511,512,513,514,515,516,517,518,519,520,521,522,523,524,525,526,527,528,529,530,531,532,533,534,535,536,537,538"/>
  <line x1="1214" x2="1264" y1="196.5" y2="196.5" class="net_507,508,509,510,511,512,513,514,515,516,517,518,519,520,521,522,523,524,525,526,527,528,529,530,531,532,533,534,535,536,537,538"/>
  <line x1="1264" x2="1264" y1="196.5" y2="200" class="net_507,508,509,510,511,512,513,514,515,516,517,518,519,520,521,522,523,524,525,526,527,528,529,530,531,532,533,534,535,536,537,538"/>
  <circle cx="1214" cy="212.5" r="2" style="fill:#000" class="net_507,508,509,510,511,512,513,514,515,516,517,518,519,520,521,522,523,524,525,526,527,528,529,530,531,532,533,534,535,536,537,538"/>
  <line x1="1264" x2="1365" y1="200" y2="200" class="net_507,508,509,510,511,512,513,514,515,516,517,518,519,520,521,522,523,524,525,526,527,528,529,530,531,532,533,534,535,536,537,538"/>
  <line x1="754" x2="784" y1="212.5" y2="212.5" class="net_507,508,509,510,511,512,513,514,515,516,517,518,519,520,521,522,523,524,525,526,527,528,529,530,531,532,533,534,535,536,537,538"/>
  <line x1="784" x2="784" y1="212.5" y2="701.5" class="net_507,508,509,510,511,512,513,514,515,516,517,518,519,520,521,522,523,524,525,526,527,528,529,530,531,532,533,534,535,536,537,538"/>
  <circle cx="784" cy="212.5" r="2" style="fill:#000" class="net_507,508,509,510,511,512,513,514,515,516,517,518,519,520,521,522,523,524,525,526,527,528,529,530,531,532,533,534,535,536,537,538"/>
  <line x1="784" x2="794" y1="701.5" y2="701.5" class="net_507,508,509,510,511,512,513,514,515,516,517,518,519,520,521,522,523,524,525,526,527,528,529,530,531,532,533,534,535,536,537,538"/>
  <line x1="754" x2="784" y1="212.5" y2="212.5" class="net_507,508,509,510,511,512,513,514,515,516,517,518,519,520,521,522,523,524,525,526,527,528,529,530,531,532,533,534,535,536,537,538"/>
  <line x1="784" x2="784" y1="212.5" y2="149" class="net_507,508,509,510,511,512,513,514,515,516,517,518,519,520,521,522,523,524,525,526,527,528,529,530,531,532,533,534,535,536,537,538"/>
  <line x1="784" x2="1264" y1="149" y2="149" class="net_507,508,509,510,511,512,513,514,515,516,517,518,519,520,521,522,523,524,525,526,527,528,529,530,531,532,533,534,535,536,537,538"/>
  <line x1="1264" x2="1264" y1="149" y2="140" class="net_507,508,509,510,511,512,513,514,515,516,517,518,519,520,521,522,523,524,525,526,527,528,529,530,531,532,533,534,535,536,537,538"/>
  <line x1="1264" x2="1365" y1="140" y2="140" class="net_507,508,509,510,511,512,513,514,515,516,517,518,519,520,521,522,523,524,525,526,527,528,529,530,531,532,533,534,535,536,537,538"/>
  <line x1="1175" x2="1214" y1="458.5" y2="458.5" class="net_198,199,200,201,202,203,204,205"/>
  <line x1="1214" x2="1214" y1="458.5" y2="227.5" class="net_198,199,200,201,202,203,204,205"/>
  <line x1="1214" x2="1232" y1="227.5" y2="227.5" class="net_198,199,200,201,202,203,204,205"/>
  <line x1="1254" x2="1365" y1="220" y2="220" class="net_296,297,298,299,300,301,302,303,304,305,306,307,308,309,310,311,312,313,314,315,316,317,318,319,320,321,322,323,324,325,326,327"/>
  <line x1="1175" x2="1375" y1="478.5" y2="478.5" class="net_206"/>
  <line x1="1375" x2="1375" y1="478.5" y2="225" class="net_206"/>
  <line x1="750.25" x2="804" y1="785" y2="785" class="net_294"/>
  <line x1="804" x2="804" y1="785" y2="726.5" class="net_294"/>
  <line x1="750.25" x2="764" y1="785" y2="785" class="net_294"/>
  <line x1="764" x2="764" y1="785" y2="761.5" class="net_294"/>
  <line x1="764" x2="175" y1="761.5" y2="761.5" class="net_294"/>
  <line x1="175" x2="175" y1="761.5" y2="684" class="net_294"/>
  <circle cx="764" cy="785" r="2" style="fill:#000" class="net_294"/>
  <line x1="175" x2="197" y1="684" y2="684" class="net_294"/>
  <line x1="1194" x2="1204" y1="851.5" y2="851.5" class="net_295"/>
  <line x1="1204" x2="1204" y1="851.5" y2="180" class="net_295"/>
  <line x1="1204" x2="1375" y1="180" y2="180" class="net_295"/>
  <circle cx="1204" cy="851.5" r="2" style="fill:#000" class="net_295"/>
  <line x1="1375" x2="1375" y1="180" y2="165" class="net_295"/>
  <line x1="1194" x2="1204" y1="851.5" y2="851.5" class="net_295"/>
  <line x1="1204" x2="1204" y1="851.5" y2="924" class="net_295"/>
  <line x1="1204" x2="1238.3333333333333" y1="924" y2="924" class="net_295"/>
  <line x1="877" x2="965" y1="243.5" y2="243.5" class="net_4,5,6,7,8,9,10,11"/>
  <line x1="965" x2="965" y1="243.5" y2="468.5" class="net_4,5,6,7,8,9,10,11"/>
  <line x1="965" x2="1048" y1="468.5" y2="468.5" class="net_4,5,6,7,8,9,10,11"/>
  <line x1="877" x2="955" y1="308.5" y2="308.5" class="net_12,13,14,15,16,17,18,19"/>
  <line x1="955" x2="955" y1="308.5" y2="488.5" class="net_12,13,14,15,16,17,18,19"/>
  <line x1="955" x2="1048" y1="488.5" y2="488.5" class="net_12,13,14,15,16,17,18,19"/>
  <line x1="877" x2="945" y1="373.5" y2="373.5" class="net_37,38,39,40,41,42,43,44,45,46,47,48,49,50,51,52,53,54,55,56,57,58,59,60,61,62,63,64,65,66,67,68"/>
  <line x1="945" x2="945" y1="373.5" y2="508.5" class="net_37,38,39,40,41,42,43,44,45,46,47,48,49,50,51,52,53,54,55,56,57,58,59,60,61,62,63,64,65,66,67,68"/>
  <line x1="945" x2="1048" y1="508.5" y2="508.5" class="net_37,38,39,40,41,42,43,44,45,46,47,48,49,50,51,52,53,54,55,56,57,58,59,60,61,62,63,64,65,66,67,68"/>
  <line x1="877" x2="935" y1="438.5" y2="438.5" class="net_69,70,71,72,73,74,75,76,77,78,79,80,81,82,83,84,85,86,87,88,89,90,91,92,93,94,95,96,97,98,99,100"/>
  <line x1="935" x2="935" y1="438.5" y2="528.5" class="net_69,70,71,72,73,74,75,76,77,78,79,80,81,82,83,84,85,86,87,88,89,90,91,92,93,94,95,96,97,98,99,100"/>
  <line x1="935" x2="1048" y1="528.5" y2="528.5" class="net_69,70,71,72,73,74,75,76,77,78,79,80,81,82,83,84,85,86,87,88,89,90,91,92,93,94,95,96,97,98,99,100"/>
  <line x1="877" x2="925" y1="503.5" y2="503.5" class="net_101,102,103,104,105,106,107,108,109,110,111,112,113,114,115,116,117,118,119,120,121,122,123,124,125,126,127,128,129,130,131,132"/>
  <line x1="925" x2="925" y1="503.5" y2="548.5" class="net_101,102,103,104,105,106,107,108,109,110,111,112,113,114,115,116,117,118,119,120,121,122,123,124,125,126,127,128,129,130,131,132"/>
  <line x1="925" x2="1048" y1="548.5" y2="548.5" class="net_101,102,103,104,105,106,107,108,109,110,111,112,113,114,115,116,117,118,119,120,121,122,123,124,125,126,127,128,129,130,131,132"/>
  <line x1="877" x2="1048" y1="568.5" y2="568.5" class="net_133,134,135,136,137,138,139,140,141,142,143,144,145,146,147,148,149,150,151,152,153,154,155,156,157,158,159,160,161,162,163,164"/>
  <line x1="877" x2="925" y1="633.5" y2="633.5" class="net_165,166,167,168,169,170,171,172,173,174,175,176,177,178,179,180,181,182,183,184,185,186,187,188,189,190,191,192,193,194,195,196"/>
  <line x1="925" x2="925" y1="633.5" y2="588.5" class="net_165,166,167,168,169,170,171,172,173,174,175,176,177,178,179,180,181,182,183,184,185,186,187,188,189,190,191,192,193,194,195,196"/>
  <line x1="925" x2="1048" y1="588.5" y2="588.5" class="net_165,166,167,168,169,170,171,172,173,174,175,176,177,178,179,180,181,182,183,184,185,186,187,188,189,190,191,192,193,194,195,196"/>
  <line x1="879" x2="935" y1="689" y2="689" class="net_360"/>
  <line x1="935" x2="935" y1="689" y2="608.5" class="net_360"/>
  <line x1="935" x2="1048" y1="608.5" y2="608.5" class="net_360"/>
  <line x1="1620" x2="1770" y1="96.5" y2="96.5" class="net_392"/>
  <line x1="1770" x2="1770" y1="96.5" y2="667.5" class="net_392"/>
  <line x1="1770" x2="1901" y1="667.5" y2="667.5" class="net_392"/>
  <line x1="1620" x2="1750" y1="187.5" y2="187.5" class="net_328,329,330,331,332,333,334,335"/>
  <line x1="1750" x2="1750" y1="187.5" y2="707.5" class="net_328,329,330,331,332,333,334,335"/>
  <line x1="1750" x2="1901" y1="707.5" y2="707.5" class="net_328,329,330,331,332,333,334,335"/>
  <line x1="1618" x2="1901" y1="727.5" y2="727.5" class="net_29,30,31,32,33,34,35,36"/>
  <line x1="1618" x2="1750" y1="792.5" y2="792.5" class="net_20,21,22,23,24,25,26,27,28"/>
  <line x1="1750" x2="1750" y1="792.5" y2="747.5" class="net_20,21,22,23,24,25,26,27,28"/>
  <line x1="1750" x2="1901" y1="747.5" y2="747.5" class="net_20,21,22,23,24,25,26,27,28"/>
  <line x1="1932" x2="2022" y1="667.5" y2="667.5" class="net_197"/>
  <line x1="1079" x2="1144" y1="468.5" y2="468.5" class="net_198,199,200,201,202,203,204,205,206"/>
  <line x1="1144" x2="1144" y1="468.5" y2="823.5" class="net_198,199,200,201,202,203,204,205,206"/>
  <circle cx="1144" cy="468.5" r="2" style="fill:#000" class="net_198,199,200,201,202,203,204,205,206"/>
  <line x1="1144" x2="2022" y1="823.5" y2="823.5" class="net_198,199,200,201,202,203,204,205,206"/>
  <line x1="1079" x2="1170" y1="468.5" y2="468.5" class="net_198,199,200,201,202,203,204,205,206"/>
  <line x1="150" x2="197" y1="664" y2="664" class="net_293"/>
  <line x1="150" x2="165" y1="664" y2="664" class="net_293"/>
  <line x1="165" x2="165" y1="664" y2="904" class="net_293"/>
  <circle cx="165" cy="664" r="2" style="fill:#000" class="net_293"/>
  <line x1="165" x2="1238.3333333333333" y1="904" y2="904" class="net_293"/>
  <line x1="2047" x2="2086" y1="67.5" y2="67.5" class="net_259,260,261,262,263,264,265,266,267,268,269,270,271,272,273,274,275,276,277,278,279,280,281,282,283,284,285,286,287,288,289,290"/>
  <line x1="2086" x2="2086" y1="67.5" y2="45" class="net_259,260,261,262,263,264,265,266,267,268,269,270,271,272,273,274,275,276,277,278,279,280,281,282,283,284,285,286,287,288,289,290"/>
  <line x1="2086" x2="270.5" y1="45" y2="45" class="net_259,260,261,262,263,264,265,266,267,268,269,270,271,272,273,274,275,276,277,278,279,280,281,282,283,284,285,286,287,288,289,290"/>
  <line x1="270.5" x2="270.5" y1="45" y2="33" class="net_259,260,261,262,263,264,265,266,267,268,269,270,271,272,273,274,275,276,277,278,279,280,281,282,283,284,285,286,287,288,289,290"/>
  <line x1="1906" x2="2022.5" y1="947" y2="947" class="net_209,210,211,212,213,214,215,216,217,218,219,220,221,222,223,224,225,226,227,228,229,230,231,232,233,234,235,236,237,238,239,240"/>
  <line x1="2022.5" x2="2022.5" y1="947" y2="874.5" class="net_209,210,211,212,213,214,215,216,217,218,219,220,221,222,223,224,225,226,227,228,229,230,231,232,233,234,235,236,237,238,239,240"/>
  <line x1="814" x2="874.5" y1="711.5" y2="711.5" class="net_360,361,362,363,364,365,366,367,368,369,370,371,372,373,374,375,376,377,378,379,380,381,382,383,384,385,386,387,388,389,390,391"/>
  <line x1="874.5" x2="874.5" y1="711.5" y2="699.5" class="net_360,361,362,363,364,365,366,367,368,369,370,371,372,373,374,375,376,377,378,379,380,381,382,383,384,385,386,387,388,389,390,391"/>
  <line x1="1385" x2="1615.5" y1="150" y2="150" class="net_392,393,394,395,396,397,398,399,400,401,402,403,404,405,406,407,408,409,410,411,412,413,414,415,416,417,418,419,420,421,422,423"/>
  <line x1="1615.5" x2="1615.5" y1="150" y2="107" class="net_392,393,394,395,396,397,398,399,400,401,402,403,404,405,406,407,408,409,410,411,412,413,414,415,416,417,418,419,420,421,422,423"/>
  <line x1="1385" x2="1615.5" y1="210" y2="210" class="net_328,329,330,331,332,333,334,335,336,337,338,339,340,341,342,343,344,345,346,347,348,349,350,351,352,353,354,355,356,357,358,359"/>
  <line x1="1615.5" x2="1615.5" y1="210" y2="198" class="net_328,329,330,331,332,333,334,335,336,337,338,339,340,341,342,343,344,345,346,347,348,349,350,351,352,353,354,355,356,357,358,359"/>
</svg>
